%
M48
M72
T01C0.0140
T02C0.0236
T03C0.0276
T04C0.0320
T05C0.0354
T06C0.0400
T07C0.0472
T08C0.0590
T09C0.1299
%
T01
X16471Y5003
T02
X22459Y3314
X19459Y6609
X18573Y7880
X20117Y7971
X18979Y9550
X16963Y9014
X13684Y10436
X14680Y12101
X12286Y12144
X10943Y12066
X10077Y12735
X7558Y12105
X7321Y13995
X7754Y14900
X11113Y14605
X15235Y15609
X15983Y16121
X18652Y15632
X21447Y13963
X21408Y13026
X19353Y13219
X17585Y12688
X17629Y12121
X17467Y13625
X21471Y10003
X27971Y14503
X12660Y4314
X7243Y6121
X4841Y6790
X3188Y7853
X5274Y9152
X6219Y9152
X5747Y8050
X4802Y5491
X4802Y4703
X4802Y3955
X4802Y3129
X4802Y2380
T03
X15002Y3340
T04
X21073Y6558
X20062Y6550
T05
X23317Y7534
X22317Y8038
X23314Y8530
X22310Y9030
X23317Y9530
X22302Y10010
X23317Y10522
X22302Y11026
T06
X27699Y5109
X26699Y5109
X25699Y5109
X24699Y5109
X25656Y15949
X23876Y15949
X16266Y7904
X15266Y7904
X14266Y7904
X13266Y7904
X12266Y7904
X11266Y7904
X9648Y8353
X8648Y8353
X7648Y8353
X6648Y8353
X6648Y7353
X7648Y7353
X8648Y7353
X9648Y7353
T07
X2392Y1719
X2392Y3097
X2392Y4475
X2392Y5853
X2392Y7231
X2392Y8609
X2392Y9987
X2392Y11365
X2392Y12743
X2392Y14121
X2392Y15499
X2392Y16877
T08
X26146Y14969
X23386Y14969
T09
X25817Y7042
X25817Y11530
M30
