G75*
%MOIN*%
%OFA0B0*%
%FSLAX24Y24*%
%IPPOS*%
%LPD*%
%AMOC8*
5,1,8,0,0,1.08239X$1,22.5*
%
%ADD10C,0.0600*%
%ADD11OC8,0.0600*%
%ADD12C,0.0885*%
%ADD13C,0.0709*%
%ADD14R,0.0554X0.0554*%
%ADD15OC8,0.0630*%
%ADD16C,0.0240*%
%ADD17C,0.0396*%
%ADD18C,0.0436*%
%ADD19R,0.0396X0.0396*%
%ADD20C,0.0120*%
%ADD21C,0.0100*%
%ADD22C,0.0070*%
%ADD23C,0.0300*%
D10*
X011266Y007604D02*
X011266Y008204D01*
X012266Y008204D02*
X012266Y007604D01*
X013266Y007604D02*
X013266Y008204D01*
X014266Y008204D02*
X014266Y007604D01*
X015266Y007604D02*
X015266Y008204D01*
X016266Y008204D02*
X016266Y007604D01*
X024699Y005409D02*
X024699Y004809D01*
X025699Y004809D02*
X025699Y005409D01*
X026699Y005409D02*
X026699Y004809D01*
X027699Y004809D02*
X027699Y005409D01*
D11*
X025656Y015949D03*
X023876Y015949D03*
X009648Y008353D03*
X008648Y008353D03*
X007648Y008353D03*
X006648Y008353D03*
X006648Y007353D03*
X007648Y007353D03*
X008648Y007353D03*
X009648Y007353D03*
D12*
X023386Y014969D03*
X026146Y014969D03*
D13*
X002392Y015499D03*
X002392Y016877D03*
X002392Y014121D03*
X002392Y012743D03*
X002392Y011365D03*
X002392Y009987D03*
X002392Y008609D03*
X002392Y007231D03*
X002392Y005853D03*
X002392Y004475D03*
X002392Y003097D03*
X002392Y001719D03*
D14*
X022317Y008038D03*
X023314Y008530D03*
X022310Y009030D03*
X023317Y009530D03*
X022302Y010010D03*
X023317Y010522D03*
X022302Y011026D03*
X023317Y007534D03*
D15*
X021073Y006558D03*
X020062Y006550D03*
D16*
X021471Y007503D02*
X021471Y008003D01*
X022471Y008003D01*
X022317Y008038D01*
X021471Y008003D02*
X021471Y010003D01*
X021471Y007503D02*
X024278Y006294D01*
X024699Y005109D01*
X022459Y003314D02*
X016203Y003314D01*
X014924Y004593D01*
X013125Y004593D01*
X012660Y004314D01*
X014924Y004593D02*
X015266Y004936D01*
X015266Y007904D01*
D17*
X021471Y010003D03*
X027971Y014503D03*
D18*
X015002Y003340D03*
D19*
X012660Y004314D03*
X007243Y006121D03*
X004841Y006790D03*
X003188Y007853D03*
X005274Y009152D03*
X006219Y009152D03*
X005747Y008050D03*
X004802Y005491D03*
X004802Y004703D03*
X004802Y003955D03*
X004802Y003129D03*
X004802Y002380D03*
X016963Y009014D03*
X018573Y007880D03*
X020117Y007971D03*
X019459Y006609D03*
X018979Y009550D03*
X017629Y012121D03*
X017585Y012688D03*
X017467Y013625D03*
X019353Y013219D03*
X021408Y013026D03*
X021447Y013963D03*
X018652Y015632D03*
X015983Y016121D03*
X015235Y015609D03*
X011113Y014605D03*
X010077Y012735D03*
X010943Y012066D03*
X012286Y012144D03*
X014680Y012101D03*
X013684Y010436D03*
X007558Y012105D03*
X007321Y013995D03*
X007754Y014900D03*
X022459Y003314D03*
D20*
X000731Y001263D02*
X000731Y017278D01*
X002038Y017278D01*
X001939Y017179D01*
X001858Y016983D01*
X001858Y016770D01*
X001939Y016574D01*
X002084Y016429D01*
X001872Y016429D01*
X001737Y016295D01*
X001383Y015940D01*
X001383Y007915D01*
X001517Y007780D01*
X001675Y007623D01*
X002057Y007623D01*
X002000Y007566D01*
X001952Y007500D01*
X001916Y007428D01*
X001891Y007351D01*
X001881Y007289D01*
X002334Y007289D01*
X002334Y007173D01*
X001881Y007173D01*
X001891Y007110D01*
X001916Y007033D01*
X001952Y006961D01*
X002000Y006896D01*
X002057Y006839D01*
X002123Y006791D01*
X002195Y006754D01*
X002272Y006729D01*
X002334Y006719D01*
X002334Y007173D01*
X002450Y007173D01*
X002450Y006719D01*
X002513Y006729D01*
X002590Y006754D01*
X002662Y006791D01*
X002727Y006839D01*
X002785Y006896D01*
X002832Y006961D01*
X002869Y007033D01*
X002894Y007110D01*
X002904Y007173D01*
X002450Y007173D01*
X002450Y007289D01*
X002904Y007289D01*
X002894Y007351D01*
X002869Y007428D01*
X002832Y007500D01*
X002785Y007566D01*
X002728Y007623D01*
X002809Y007623D01*
X002809Y007580D01*
X002915Y007475D01*
X003460Y007475D01*
X003566Y007580D01*
X003566Y008016D01*
X004234Y007347D01*
X006157Y007347D01*
X006168Y007359D01*
X006168Y007154D01*
X006449Y006873D01*
X006847Y006873D01*
X007128Y007154D01*
X007128Y007552D01*
X007057Y007623D01*
X007239Y007623D01*
X007168Y007552D01*
X007168Y007154D01*
X007449Y006873D01*
X007847Y006873D01*
X008128Y007154D01*
X008128Y007552D01*
X008057Y007623D01*
X008239Y007623D01*
X008168Y007552D01*
X008168Y007154D01*
X008449Y006873D01*
X008847Y006873D01*
X009128Y007154D01*
X009128Y007552D01*
X008847Y007833D01*
X008730Y007833D01*
X008690Y007873D01*
X008847Y007873D01*
X009128Y008154D01*
X009128Y008552D01*
X008847Y008833D01*
X008449Y008833D01*
X008168Y008552D01*
X008168Y008154D01*
X008239Y008083D01*
X008057Y008083D01*
X008128Y008154D01*
X008128Y008552D01*
X007847Y008833D01*
X007449Y008833D01*
X007168Y008552D01*
X007168Y008154D01*
X007239Y008083D01*
X007057Y008083D01*
X007128Y008154D01*
X007128Y008552D01*
X006847Y008833D01*
X006449Y008833D01*
X006168Y008552D01*
X006168Y008154D01*
X006241Y008082D01*
X006125Y007966D01*
X006125Y008322D01*
X006019Y008428D01*
X005977Y008428D01*
X005977Y011413D01*
X005554Y011836D01*
X007180Y011836D01*
X007180Y011832D01*
X007285Y011727D01*
X007830Y011727D01*
X007936Y011832D01*
X007936Y012378D01*
X007830Y012483D01*
X007285Y012483D01*
X007180Y012378D01*
X007180Y012296D01*
X004700Y012296D01*
X004520Y012476D01*
X004520Y013617D01*
X004385Y013752D01*
X003787Y014351D01*
X002875Y014351D01*
X002845Y014423D01*
X002695Y014574D01*
X002557Y014631D01*
X006832Y014631D01*
X006973Y014490D01*
X006973Y014297D01*
X006943Y014267D01*
X006943Y013722D01*
X007049Y013617D01*
X007594Y013617D01*
X007700Y013722D01*
X007700Y014267D01*
X007594Y014373D01*
X007433Y014373D01*
X007433Y014571D01*
X007482Y014522D01*
X008027Y014522D01*
X008133Y014627D01*
X008133Y015173D01*
X008027Y015278D01*
X007788Y015278D01*
X007788Y015980D01*
X007653Y016114D01*
X007338Y016429D01*
X002701Y016429D01*
X002845Y016574D01*
X002927Y016770D01*
X002927Y016983D01*
X002845Y017179D01*
X002747Y017278D01*
X028557Y017278D01*
X028557Y001263D01*
X002686Y001263D01*
X002695Y001266D01*
X002845Y001416D01*
X002927Y001613D01*
X002927Y001825D01*
X002845Y002022D01*
X002695Y002172D01*
X002499Y002253D01*
X002286Y002253D01*
X002090Y002172D01*
X001939Y002022D01*
X001858Y001825D01*
X001858Y001613D01*
X001939Y001416D01*
X002090Y001266D01*
X002098Y001263D01*
X000731Y001263D01*
X000731Y001358D02*
X001998Y001358D01*
X001914Y001477D02*
X000731Y001477D01*
X000731Y001595D02*
X001865Y001595D01*
X001858Y001714D02*
X000731Y001714D01*
X000731Y001832D02*
X001861Y001832D01*
X001910Y001951D02*
X000731Y001951D01*
X000731Y002069D02*
X001987Y002069D01*
X002127Y002188D02*
X000731Y002188D01*
X000731Y002306D02*
X028557Y002306D01*
X028557Y002188D02*
X002658Y002188D01*
X002798Y002069D02*
X028557Y002069D01*
X028557Y001951D02*
X002875Y001951D01*
X002924Y001832D02*
X028557Y001832D01*
X028557Y001714D02*
X002927Y001714D01*
X002919Y001595D02*
X028557Y001595D01*
X028557Y001477D02*
X002870Y001477D01*
X002787Y001358D02*
X028557Y001358D01*
X028557Y002425D02*
X000731Y002425D01*
X000731Y002543D02*
X028557Y002543D01*
X028557Y002662D02*
X002668Y002662D01*
X002662Y002657D02*
X002727Y002705D01*
X002785Y002762D01*
X002832Y002827D01*
X002869Y002900D01*
X002894Y002977D01*
X002904Y003039D01*
X002450Y003039D01*
X002450Y002585D01*
X002513Y002595D01*
X002590Y002620D01*
X002662Y002657D01*
X002798Y002780D02*
X028557Y002780D01*
X028557Y002899D02*
X002868Y002899D01*
X002900Y003017D02*
X016135Y003017D01*
X016144Y003014D02*
X022108Y003014D01*
X022187Y002935D01*
X022732Y002935D01*
X022837Y003041D01*
X022837Y003586D01*
X022732Y003692D01*
X022187Y003692D01*
X022108Y003614D01*
X016328Y003614D01*
X015348Y004593D01*
X015521Y004766D01*
X015566Y004876D01*
X015566Y007225D01*
X015673Y007332D01*
X015746Y007509D01*
X015746Y008300D01*
X015673Y008476D01*
X015538Y008611D01*
X015362Y008684D01*
X015171Y008684D01*
X014994Y008611D01*
X014859Y008476D01*
X014786Y008300D01*
X014786Y007509D01*
X014859Y007332D01*
X014966Y007225D01*
X014966Y005060D01*
X014800Y004893D01*
X013161Y004893D01*
X013139Y004899D01*
X013102Y004893D01*
X013065Y004893D01*
X013044Y004884D01*
X013021Y004881D01*
X012989Y004862D01*
X012955Y004847D01*
X012938Y004831D01*
X012707Y004692D01*
X012387Y004692D01*
X012282Y004586D01*
X012282Y004041D01*
X012387Y003935D01*
X012933Y003935D01*
X013038Y004041D01*
X013038Y004191D01*
X013208Y004293D01*
X014800Y004293D01*
X016033Y003059D01*
X016144Y003014D01*
X015957Y003136D02*
X002450Y003136D01*
X002450Y003155D02*
X002904Y003155D01*
X002894Y003217D01*
X002869Y003294D01*
X002832Y003367D01*
X002785Y003432D01*
X002727Y003489D01*
X002662Y003537D01*
X002590Y003574D01*
X002513Y003599D01*
X002450Y003609D01*
X002450Y003155D01*
X002334Y003155D01*
X002334Y003039D01*
X001881Y003039D01*
X001891Y002977D01*
X001916Y002900D01*
X001952Y002827D01*
X002000Y002762D01*
X002057Y002705D01*
X002123Y002657D01*
X002195Y002620D01*
X002272Y002595D01*
X002334Y002585D01*
X002334Y003039D01*
X002450Y003039D01*
X002450Y003155D01*
X002450Y003254D02*
X002334Y003254D01*
X002334Y003155D02*
X002334Y003609D01*
X002272Y003599D01*
X002195Y003574D01*
X002123Y003537D01*
X002057Y003489D01*
X002000Y003432D01*
X001952Y003367D01*
X001916Y003294D01*
X001891Y003217D01*
X001881Y003155D01*
X002334Y003155D01*
X002334Y003136D02*
X000731Y003136D01*
X000731Y003254D02*
X001903Y003254D01*
X001957Y003373D02*
X000731Y003373D01*
X000731Y003491D02*
X002060Y003491D01*
X002334Y003491D02*
X002450Y003491D01*
X002450Y003373D02*
X002334Y003373D01*
X002334Y003017D02*
X002450Y003017D01*
X002450Y002899D02*
X002334Y002899D01*
X002334Y002780D02*
X002450Y002780D01*
X002450Y002662D02*
X002334Y002662D01*
X002117Y002662D02*
X000731Y002662D01*
X000731Y002780D02*
X001987Y002780D01*
X001916Y002899D02*
X000731Y002899D01*
X000731Y003017D02*
X001884Y003017D01*
X002725Y003491D02*
X015602Y003491D01*
X015720Y003373D02*
X002828Y003373D01*
X002882Y003254D02*
X015839Y003254D01*
X015483Y003610D02*
X000731Y003610D01*
X000731Y003728D02*
X015365Y003728D01*
X015246Y003847D02*
X000731Y003847D01*
X000731Y003965D02*
X002227Y003965D01*
X002286Y003941D02*
X002499Y003941D01*
X002695Y004022D01*
X002845Y004172D01*
X002927Y004369D01*
X002927Y004581D01*
X002845Y004778D01*
X002695Y004928D01*
X002499Y005009D01*
X002286Y005009D01*
X002090Y004928D01*
X001939Y004778D01*
X001858Y004581D01*
X001858Y004369D01*
X001939Y004172D01*
X002090Y004022D01*
X002286Y003941D01*
X002557Y003965D02*
X012358Y003965D01*
X012282Y004084D02*
X002757Y004084D01*
X002858Y004202D02*
X012282Y004202D01*
X012282Y004321D02*
X002907Y004321D01*
X002927Y004439D02*
X012282Y004439D01*
X012282Y004558D02*
X002927Y004558D01*
X002887Y004676D02*
X012372Y004676D01*
X012877Y004795D02*
X002828Y004795D01*
X002710Y004913D02*
X014819Y004913D01*
X014938Y005032D02*
X000731Y005032D01*
X000731Y005150D02*
X014966Y005150D01*
X014966Y005269D02*
X000731Y005269D01*
X000731Y005387D02*
X002121Y005387D01*
X002090Y005400D02*
X002286Y005319D01*
X002499Y005319D01*
X002695Y005400D01*
X002845Y005550D01*
X002927Y005747D01*
X002927Y005891D01*
X006865Y005891D01*
X006865Y005848D01*
X006970Y005743D01*
X002925Y005743D01*
X002927Y005861D02*
X006865Y005861D01*
X006970Y005743D02*
X007515Y005743D01*
X014966Y005743D01*
X014966Y005861D02*
X007621Y005861D01*
X007621Y005848D02*
X007515Y005743D01*
X007621Y005848D02*
X007621Y006393D01*
X007515Y006499D01*
X006970Y006499D01*
X006865Y006393D01*
X006865Y006351D01*
X002587Y006351D01*
X002499Y006387D01*
X002286Y006387D01*
X002090Y006306D01*
X001939Y006156D01*
X001858Y005959D01*
X001858Y005747D01*
X001939Y005550D01*
X002090Y005400D01*
X001984Y005506D02*
X000731Y005506D01*
X000731Y005624D02*
X001909Y005624D01*
X001860Y005743D02*
X000731Y005743D01*
X000731Y005861D02*
X001858Y005861D01*
X001866Y005980D02*
X000731Y005980D01*
X000731Y006098D02*
X001915Y006098D01*
X002000Y006217D02*
X000731Y006217D01*
X000731Y006335D02*
X002160Y006335D01*
X002098Y006809D02*
X000731Y006809D01*
X000731Y006691D02*
X014966Y006691D01*
X014966Y006809D02*
X002687Y006809D01*
X002808Y006928D02*
X006395Y006928D01*
X006276Y007046D02*
X002873Y007046D01*
X002903Y007165D02*
X006168Y007165D01*
X006168Y007283D02*
X002450Y007283D01*
X002334Y007283D02*
X000731Y007283D01*
X000731Y007165D02*
X001882Y007165D01*
X001912Y007046D02*
X000731Y007046D01*
X000731Y006928D02*
X001977Y006928D01*
X002334Y006928D02*
X002450Y006928D01*
X002450Y007046D02*
X002334Y007046D01*
X002334Y007165D02*
X002450Y007165D01*
X002878Y007402D02*
X004180Y007402D01*
X004061Y007520D02*
X003505Y007520D01*
X003566Y007639D02*
X003943Y007639D01*
X003824Y007757D02*
X003566Y007757D01*
X003566Y007876D02*
X003706Y007876D01*
X003587Y007994D02*
X003566Y007994D01*
X004001Y008231D02*
X005369Y008231D01*
X005369Y008322D02*
X005369Y007807D01*
X004425Y007807D01*
X003890Y008342D01*
X003755Y008477D01*
X003362Y008477D01*
X003260Y008578D01*
X003260Y009444D01*
X002897Y009808D01*
X002927Y009880D01*
X002927Y010093D01*
X002845Y010289D01*
X002695Y010440D01*
X002499Y010521D01*
X002286Y010521D01*
X002090Y010440D01*
X001939Y010289D01*
X001858Y010093D01*
X001858Y009880D01*
X001939Y009684D01*
X002090Y009534D01*
X002286Y009452D01*
X002499Y009452D01*
X002571Y009483D01*
X002800Y009254D01*
X002800Y008957D01*
X002695Y009062D01*
X002499Y009143D01*
X002286Y009143D01*
X002090Y009062D01*
X001939Y008911D01*
X001858Y008715D01*
X001858Y008503D01*
X001939Y008306D01*
X002090Y008156D01*
X002266Y008083D01*
X001866Y008083D01*
X001843Y008106D01*
X001843Y013361D01*
X001911Y013292D01*
X003604Y013292D01*
X003745Y013151D01*
X003745Y012206D01*
X003880Y012072D01*
X004431Y011521D01*
X005218Y011521D01*
X005517Y011222D01*
X005517Y008428D01*
X005474Y008428D01*
X005369Y008322D01*
X005396Y008350D02*
X003882Y008350D01*
X003764Y008468D02*
X005517Y008468D01*
X005517Y008587D02*
X003260Y008587D01*
X003260Y008705D02*
X005517Y008705D01*
X005517Y008824D02*
X003260Y008824D01*
X003260Y008942D02*
X005517Y008942D01*
X005517Y009061D02*
X003260Y009061D01*
X003260Y009179D02*
X005517Y009179D01*
X005517Y009298D02*
X003260Y009298D01*
X003260Y009416D02*
X005517Y009416D01*
X005517Y009535D02*
X003170Y009535D01*
X003051Y009653D02*
X005517Y009653D01*
X005517Y009772D02*
X002933Y009772D01*
X002927Y009890D02*
X005517Y009890D01*
X005517Y010009D02*
X002927Y010009D01*
X002913Y010127D02*
X005517Y010127D01*
X005517Y010246D02*
X002863Y010246D01*
X002771Y010364D02*
X005517Y010364D01*
X005517Y010483D02*
X002592Y010483D01*
X002193Y010483D02*
X001843Y010483D01*
X001843Y010601D02*
X005517Y010601D01*
X005517Y010720D02*
X001843Y010720D01*
X001843Y010838D02*
X005517Y010838D01*
X005517Y010957D02*
X002705Y010957D01*
X002727Y010972D02*
X002785Y011030D01*
X002832Y011095D01*
X002869Y011167D01*
X002894Y011244D01*
X002904Y011307D01*
X002450Y011307D01*
X002450Y010853D01*
X002513Y010863D01*
X002590Y010888D01*
X002662Y010925D01*
X002727Y010972D01*
X002818Y011075D02*
X005517Y011075D01*
X005517Y011194D02*
X002877Y011194D01*
X002450Y011194D02*
X002334Y011194D01*
X002334Y011307D02*
X002334Y010853D01*
X002272Y010863D01*
X002195Y010888D01*
X002123Y010925D01*
X002057Y010972D01*
X002000Y011030D01*
X001952Y011095D01*
X001916Y011167D01*
X001891Y011244D01*
X001881Y011307D01*
X002334Y011307D01*
X002334Y011423D01*
X002334Y011876D01*
X002272Y011866D01*
X002195Y011841D01*
X002123Y011805D01*
X002057Y011757D01*
X002000Y011700D01*
X001952Y011634D01*
X001916Y011562D01*
X001891Y011485D01*
X001881Y011423D01*
X002334Y011423D01*
X002450Y011423D01*
X002450Y011876D01*
X002513Y011866D01*
X002590Y011841D01*
X002662Y011805D01*
X002727Y011757D01*
X002785Y011700D01*
X002832Y011634D01*
X002869Y011562D01*
X002894Y011485D01*
X002904Y011423D01*
X002450Y011423D01*
X002450Y011307D01*
X002334Y011307D01*
X002334Y011312D02*
X001843Y011312D01*
X001843Y011194D02*
X001907Y011194D01*
X001967Y011075D02*
X001843Y011075D01*
X001843Y010957D02*
X002079Y010957D01*
X002334Y010957D02*
X002450Y010957D01*
X002450Y011075D02*
X002334Y011075D01*
X002450Y011312D02*
X005427Y011312D01*
X005308Y011431D02*
X002903Y011431D01*
X002873Y011549D02*
X004402Y011549D01*
X004284Y011668D02*
X002808Y011668D01*
X002687Y011786D02*
X004165Y011786D01*
X004047Y011905D02*
X001843Y011905D01*
X001843Y012023D02*
X003928Y012023D01*
X003810Y012142D02*
X001843Y012142D01*
X001843Y012260D02*
X002161Y012260D01*
X002090Y012290D02*
X002286Y012208D01*
X002499Y012208D01*
X002695Y012290D01*
X002845Y012440D01*
X002927Y012636D01*
X002927Y012849D01*
X002845Y013045D01*
X002695Y013196D01*
X002499Y013277D01*
X002286Y013277D01*
X002090Y013196D01*
X001939Y013045D01*
X001858Y012849D01*
X001858Y012636D01*
X001939Y012440D01*
X002090Y012290D01*
X002001Y012379D02*
X001843Y012379D01*
X001843Y012497D02*
X001916Y012497D01*
X001867Y012616D02*
X001843Y012616D01*
X001843Y012734D02*
X001858Y012734D01*
X001843Y012853D02*
X001859Y012853D01*
X001843Y012971D02*
X001909Y012971D01*
X001843Y013090D02*
X001983Y013090D01*
X002120Y013208D02*
X001843Y013208D01*
X001843Y013327D02*
X001877Y013327D01*
X001383Y013327D02*
X000731Y013327D01*
X000731Y013445D02*
X001383Y013445D01*
X001383Y013564D02*
X000731Y013564D01*
X000731Y013682D02*
X001383Y013682D01*
X001383Y013801D02*
X000731Y013801D01*
X000731Y013919D02*
X001383Y013919D01*
X001383Y014038D02*
X000731Y014038D01*
X000731Y014156D02*
X001383Y014156D01*
X001383Y014275D02*
X000731Y014275D01*
X000731Y014393D02*
X001383Y014393D01*
X001383Y014512D02*
X000731Y014512D01*
X000731Y014630D02*
X001383Y014630D01*
X001383Y014749D02*
X000731Y014749D01*
X000731Y014867D02*
X001383Y014867D01*
X001383Y014986D02*
X000731Y014986D01*
X000731Y015104D02*
X001383Y015104D01*
X001383Y015223D02*
X000731Y015223D01*
X000731Y015341D02*
X001383Y015341D01*
X001383Y015460D02*
X000731Y015460D01*
X000731Y015578D02*
X001383Y015578D01*
X001383Y015697D02*
X000731Y015697D01*
X000731Y015815D02*
X001383Y015815D01*
X001383Y015934D02*
X000731Y015934D01*
X000731Y016052D02*
X001494Y016052D01*
X001613Y016171D02*
X000731Y016171D01*
X000731Y016289D02*
X001731Y016289D01*
X001850Y016408D02*
X000731Y016408D01*
X000731Y016526D02*
X001987Y016526D01*
X001910Y016645D02*
X000731Y016645D01*
X000731Y016763D02*
X001861Y016763D01*
X001858Y016882D02*
X000731Y016882D01*
X000731Y017000D02*
X001865Y017000D01*
X001914Y017119D02*
X000731Y017119D01*
X000731Y017237D02*
X001997Y017237D01*
X002787Y017237D02*
X028557Y017237D01*
X028557Y017119D02*
X002870Y017119D01*
X002919Y017000D02*
X028557Y017000D01*
X028557Y016882D02*
X002927Y016882D01*
X002924Y016763D02*
X028557Y016763D01*
X028557Y016645D02*
X002875Y016645D01*
X002797Y016526D02*
X028557Y016526D01*
X028557Y016408D02*
X025877Y016408D01*
X025855Y016429D02*
X025457Y016429D01*
X025176Y016148D01*
X025176Y015750D01*
X025457Y015469D01*
X025766Y015469D01*
X025619Y015322D01*
X025524Y015093D01*
X025524Y014845D01*
X025619Y014617D01*
X025794Y014441D01*
X026022Y014347D01*
X026270Y014347D01*
X026499Y014441D01*
X026674Y014617D01*
X026769Y014845D01*
X026769Y015093D01*
X026674Y015322D01*
X026499Y015497D01*
X026270Y015592D01*
X026022Y015592D01*
X025946Y015560D01*
X026136Y015750D01*
X026136Y016148D01*
X025855Y016429D01*
X025995Y016289D02*
X028557Y016289D01*
X028557Y016171D02*
X026114Y016171D01*
X026136Y016052D02*
X028557Y016052D01*
X028557Y015934D02*
X026136Y015934D01*
X026136Y015815D02*
X028557Y015815D01*
X028557Y015697D02*
X026082Y015697D01*
X025989Y015578D02*
X025964Y015578D01*
X025756Y015460D02*
X023776Y015460D01*
X023747Y015489D02*
X023836Y015489D01*
X023836Y015909D01*
X023416Y015909D01*
X023416Y015759D01*
X023635Y015540D01*
X023510Y015592D01*
X023262Y015592D01*
X023034Y015497D01*
X022859Y015322D01*
X022764Y015093D01*
X022764Y014845D01*
X022859Y014617D01*
X023034Y014441D01*
X023262Y014347D01*
X023510Y014347D01*
X023739Y014441D01*
X023914Y014617D01*
X024009Y014845D01*
X024009Y015093D01*
X023914Y015322D01*
X023747Y015489D01*
X023836Y015578D02*
X023916Y015578D01*
X023916Y015489D02*
X024067Y015489D01*
X024336Y015759D01*
X024336Y015909D01*
X023916Y015909D01*
X023916Y015489D01*
X023895Y015341D02*
X025638Y015341D01*
X025577Y015223D02*
X023955Y015223D01*
X024004Y015104D02*
X025528Y015104D01*
X025524Y014986D02*
X024009Y014986D01*
X024009Y014867D02*
X025524Y014867D01*
X025564Y014749D02*
X023969Y014749D01*
X023920Y014630D02*
X025613Y014630D01*
X025724Y014512D02*
X023809Y014512D01*
X023622Y014393D02*
X025911Y014393D01*
X026382Y014393D02*
X028557Y014393D01*
X028557Y014275D02*
X021787Y014275D01*
X021826Y014236D02*
X021720Y014341D01*
X021409Y014341D01*
X021250Y014500D01*
X021250Y015113D01*
X021214Y015201D01*
X021146Y015269D01*
X020579Y015836D01*
X020491Y015872D01*
X019030Y015872D01*
X019030Y015905D01*
X018925Y016011D01*
X018379Y016011D01*
X018274Y015905D01*
X018274Y015360D01*
X018379Y015254D01*
X018925Y015254D01*
X019030Y015360D01*
X019030Y015392D01*
X020344Y015392D01*
X020770Y014966D01*
X020770Y014352D01*
X020807Y014264D01*
X021069Y014002D01*
X021069Y013690D01*
X021175Y013585D01*
X021720Y013585D01*
X021826Y013690D01*
X021826Y014236D01*
X021826Y014156D02*
X028557Y014156D01*
X028557Y014038D02*
X021826Y014038D01*
X021826Y013919D02*
X028557Y013919D01*
X028557Y013801D02*
X021826Y013801D01*
X021817Y013682D02*
X028557Y013682D01*
X028557Y013564D02*
X012551Y013564D01*
X012551Y013682D02*
X021078Y013682D01*
X021069Y013801D02*
X012551Y013801D01*
X012551Y013919D02*
X021069Y013919D01*
X021034Y014038D02*
X012551Y014038D01*
X012551Y014156D02*
X020915Y014156D01*
X020803Y014275D02*
X012551Y014275D01*
X012551Y014393D02*
X020770Y014393D01*
X020770Y014512D02*
X012551Y014512D01*
X012551Y014630D02*
X020770Y014630D01*
X020770Y014749D02*
X012551Y014749D01*
X012551Y014867D02*
X020770Y014867D01*
X020751Y014986D02*
X012551Y014986D01*
X012551Y015104D02*
X020632Y015104D01*
X020514Y015223D02*
X012551Y015223D01*
X012551Y015317D02*
X012653Y015418D01*
X014857Y015418D01*
X014857Y015336D01*
X014962Y015231D01*
X015507Y015231D01*
X015613Y015336D01*
X015613Y015840D01*
X015710Y015743D01*
X016256Y015743D01*
X016361Y015848D01*
X016361Y016393D01*
X016256Y016499D01*
X015710Y016499D01*
X015605Y016393D01*
X015605Y016351D01*
X012305Y016351D01*
X012170Y016216D01*
X011619Y015665D01*
X011619Y013066D01*
X011517Y012965D01*
X010455Y012965D01*
X010455Y013007D01*
X010350Y013113D01*
X009805Y013113D01*
X009699Y013007D01*
X009699Y012462D01*
X009805Y012357D01*
X010350Y012357D01*
X010455Y012462D01*
X010455Y012505D01*
X011540Y012505D01*
X011540Y012318D01*
X011517Y012296D01*
X011322Y012296D01*
X011322Y012338D01*
X011216Y012444D01*
X010671Y012444D01*
X010565Y012338D01*
X010565Y011793D01*
X010671Y011687D01*
X011216Y011687D01*
X011322Y011793D01*
X011322Y011836D01*
X011708Y011836D01*
X011866Y011993D01*
X011908Y012035D01*
X011908Y011872D01*
X012003Y011777D01*
X012003Y009545D01*
X012039Y009457D01*
X012107Y009390D01*
X012685Y008811D01*
X012774Y008774D01*
X016585Y008774D01*
X016585Y008742D01*
X016690Y008636D01*
X017236Y008636D01*
X017341Y008742D01*
X017341Y009287D01*
X017318Y009310D01*
X018601Y009310D01*
X018601Y009277D01*
X018706Y009172D01*
X019252Y009172D01*
X019357Y009277D01*
X019357Y009822D01*
X019252Y009928D01*
X018706Y009928D01*
X018601Y009822D01*
X018601Y009790D01*
X014669Y009790D01*
X014062Y010397D01*
X014062Y010708D01*
X013956Y010814D01*
X013411Y010814D01*
X013306Y010708D01*
X013306Y010163D01*
X013411Y010057D01*
X013722Y010057D01*
X014433Y009346D01*
X014522Y009310D01*
X016608Y009310D01*
X016585Y009287D01*
X016585Y009254D01*
X012921Y009254D01*
X012483Y009692D01*
X012483Y011766D01*
X012559Y011766D01*
X012664Y011872D01*
X012664Y012417D01*
X012559Y012522D01*
X012356Y012522D01*
X012417Y012584D01*
X012551Y012718D01*
X012551Y015317D01*
X012576Y015341D02*
X014857Y015341D01*
X015613Y015341D02*
X018293Y015341D01*
X018274Y015460D02*
X015613Y015460D01*
X015613Y015578D02*
X018274Y015578D01*
X018274Y015697D02*
X015613Y015697D01*
X015613Y015815D02*
X015638Y015815D01*
X015619Y016408D02*
X007360Y016408D01*
X007478Y016289D02*
X012243Y016289D01*
X012125Y016171D02*
X007597Y016171D01*
X007715Y016052D02*
X012006Y016052D01*
X011888Y015934D02*
X007788Y015934D01*
X007788Y015815D02*
X011769Y015815D01*
X011651Y015697D02*
X007788Y015697D01*
X007788Y015578D02*
X011619Y015578D01*
X011619Y015460D02*
X007788Y015460D01*
X007788Y015341D02*
X011619Y015341D01*
X011619Y015223D02*
X008083Y015223D01*
X008133Y015104D02*
X011619Y015104D01*
X011619Y014986D02*
X008133Y014986D01*
X008133Y014867D02*
X011619Y014867D01*
X011619Y014749D02*
X008133Y014749D01*
X008133Y014630D02*
X011619Y014630D01*
X011619Y014512D02*
X007433Y014512D01*
X007433Y014393D02*
X011619Y014393D01*
X011619Y014275D02*
X007692Y014275D01*
X007700Y014156D02*
X011619Y014156D01*
X011619Y014038D02*
X007700Y014038D01*
X007700Y013919D02*
X011619Y013919D01*
X011619Y013801D02*
X007700Y013801D01*
X007660Y013682D02*
X011619Y013682D01*
X011619Y013564D02*
X004520Y013564D01*
X004520Y013445D02*
X011619Y013445D01*
X011619Y013327D02*
X004520Y013327D01*
X004520Y013208D02*
X011619Y013208D01*
X011619Y013090D02*
X010373Y013090D01*
X010455Y012971D02*
X011524Y012971D01*
X011540Y012497D02*
X010455Y012497D01*
X010372Y012379D02*
X010606Y012379D01*
X010565Y012260D02*
X007936Y012260D01*
X007936Y012142D02*
X010565Y012142D01*
X010565Y012023D02*
X007936Y012023D01*
X007936Y011905D02*
X010565Y011905D01*
X010572Y011786D02*
X007890Y011786D01*
X007226Y011786D02*
X005603Y011786D01*
X005722Y011668D02*
X012003Y011668D01*
X011993Y011786D02*
X011315Y011786D01*
X011777Y011905D02*
X011908Y011905D01*
X011896Y012023D02*
X011908Y012023D01*
X012243Y012101D02*
X012286Y012144D01*
X012243Y012101D02*
X012243Y009593D01*
X012821Y009014D01*
X016963Y009014D01*
X017341Y009061D02*
X021171Y009061D01*
X021171Y009179D02*
X019259Y009179D01*
X019357Y009298D02*
X021171Y009298D01*
X021171Y009416D02*
X019357Y009416D01*
X019357Y009535D02*
X021171Y009535D01*
X021171Y009653D02*
X019357Y009653D01*
X019357Y009772D02*
X021167Y009772D01*
X021171Y009768D02*
X021171Y007505D01*
X021170Y007447D01*
X021171Y007445D01*
X021171Y007443D01*
X021193Y007390D01*
X021214Y007336D01*
X021216Y007335D01*
X021217Y007333D01*
X021257Y007292D01*
X021298Y007251D01*
X021300Y007250D01*
X021301Y007248D01*
X021354Y007226D01*
X024039Y006070D01*
X024231Y005532D01*
X024219Y005504D01*
X024219Y004713D01*
X024292Y004537D01*
X024427Y004402D01*
X024604Y004329D01*
X024795Y004329D01*
X024971Y004402D01*
X025106Y004537D01*
X025179Y004713D01*
X025179Y005504D01*
X025106Y005681D01*
X024971Y005816D01*
X024795Y005889D01*
X024740Y005889D01*
X024579Y006344D01*
X024579Y006349D01*
X024559Y006400D01*
X024541Y006451D01*
X024537Y006455D01*
X024535Y006460D01*
X024497Y006499D01*
X024461Y006539D01*
X024456Y006542D01*
X024452Y006546D01*
X024402Y006567D01*
X024353Y006590D01*
X024347Y006591D01*
X023218Y007077D01*
X023669Y007077D01*
X023775Y007182D01*
X023775Y007886D01*
X023669Y007991D01*
X022966Y007991D01*
X022860Y007886D01*
X022860Y007231D01*
X022048Y007581D01*
X022669Y007581D01*
X022775Y007686D01*
X022775Y007984D01*
X022777Y007993D01*
X022775Y008006D01*
X022775Y008390D01*
X022669Y008495D01*
X021966Y008495D01*
X021860Y008390D01*
X021860Y008303D01*
X021771Y008303D01*
X021771Y009768D01*
X021792Y009788D01*
X021849Y009927D01*
X021849Y010078D01*
X021792Y010217D01*
X021685Y010323D01*
X021546Y010381D01*
X021396Y010381D01*
X021257Y010323D01*
X021150Y010217D01*
X021093Y010078D01*
X021093Y009927D01*
X021150Y009788D01*
X021171Y009768D01*
X021108Y009890D02*
X019289Y009890D01*
X018979Y009550D02*
X014569Y009550D01*
X013684Y010436D01*
X014062Y010483D02*
X022880Y010483D01*
X022880Y010494D02*
X022880Y010224D01*
X022891Y010183D01*
X022912Y010147D01*
X022942Y010117D01*
X022979Y010096D01*
X023019Y010085D01*
X023289Y010085D01*
X023289Y010494D01*
X022880Y010494D01*
X022880Y010551D02*
X022880Y010820D01*
X022891Y010861D01*
X022912Y010898D01*
X022942Y010927D01*
X022979Y010948D01*
X023019Y010959D01*
X023289Y010959D01*
X023289Y010551D01*
X023346Y010551D01*
X023346Y010959D01*
X023616Y010959D01*
X023656Y010948D01*
X023693Y010927D01*
X023723Y010898D01*
X023744Y010861D01*
X023755Y010820D01*
X023755Y010551D01*
X023346Y010551D01*
X023346Y010494D01*
X023755Y010494D01*
X023755Y010224D01*
X023744Y010183D01*
X023723Y010147D01*
X023693Y010117D01*
X023656Y010096D01*
X023616Y010085D01*
X023346Y010085D01*
X023346Y010494D01*
X023289Y010494D01*
X023289Y010551D01*
X022880Y010551D01*
X022880Y010601D02*
X022643Y010601D01*
X022641Y010600D02*
X022677Y010621D01*
X022707Y010651D01*
X022728Y010687D01*
X022739Y010728D01*
X022739Y010998D01*
X022330Y010998D01*
X022330Y011055D01*
X022273Y011055D01*
X022273Y011463D01*
X022004Y011463D01*
X021963Y011452D01*
X021926Y011431D01*
X021897Y011402D01*
X021875Y011365D01*
X021865Y011324D01*
X021865Y011055D01*
X022273Y011055D01*
X022273Y010998D01*
X021865Y010998D01*
X021865Y010728D01*
X021875Y010687D01*
X021897Y010651D01*
X021926Y010621D01*
X021963Y010600D01*
X022004Y010589D01*
X022273Y010589D01*
X022273Y010998D01*
X022330Y010998D01*
X022330Y010589D01*
X022600Y010589D01*
X022641Y010600D01*
X022737Y010720D02*
X022880Y010720D01*
X022885Y010838D02*
X022739Y010838D01*
X022739Y010957D02*
X023009Y010957D01*
X023289Y010957D02*
X023346Y010957D01*
X023346Y010838D02*
X023289Y010838D01*
X023289Y010720D02*
X023346Y010720D01*
X023346Y010601D02*
X023289Y010601D01*
X023289Y010483D02*
X023346Y010483D01*
X023346Y010364D02*
X023289Y010364D01*
X023289Y010246D02*
X023346Y010246D01*
X023346Y010127D02*
X023289Y010127D01*
X022966Y009987D02*
X022860Y009882D01*
X022860Y009178D01*
X022966Y009073D01*
X023669Y009073D01*
X023775Y009178D01*
X023775Y009882D01*
X023669Y009987D01*
X022966Y009987D01*
X022869Y009890D02*
X022739Y009890D01*
X022739Y009982D02*
X022739Y009712D01*
X022728Y009671D01*
X022707Y009635D01*
X022677Y009605D01*
X022641Y009584D01*
X022600Y009573D01*
X022330Y009573D01*
X022330Y009982D01*
X022273Y009982D01*
X021865Y009982D01*
X021865Y009712D01*
X021875Y009671D01*
X021897Y009635D01*
X021926Y009605D01*
X021963Y009584D01*
X022004Y009573D01*
X022273Y009573D01*
X022273Y009982D01*
X022273Y010039D01*
X021865Y010039D01*
X021865Y010309D01*
X021875Y010349D01*
X021897Y010386D01*
X021926Y010416D01*
X021963Y010437D01*
X022004Y010448D01*
X022273Y010448D01*
X022273Y010039D01*
X022330Y010039D01*
X022330Y010448D01*
X022600Y010448D01*
X022641Y010437D01*
X022677Y010416D01*
X022707Y010386D01*
X022728Y010349D01*
X022739Y010309D01*
X022739Y010039D01*
X022330Y010039D01*
X022330Y009982D01*
X022739Y009982D01*
X022739Y010127D02*
X022932Y010127D01*
X022880Y010246D02*
X022739Y010246D01*
X022719Y010364D02*
X022880Y010364D01*
X022330Y010364D02*
X022273Y010364D01*
X022273Y010246D02*
X022330Y010246D01*
X022330Y010127D02*
X022273Y010127D01*
X022273Y010009D02*
X021849Y010009D01*
X021829Y010127D02*
X021865Y010127D01*
X021865Y010246D02*
X021763Y010246D01*
X021884Y010364D02*
X021586Y010364D01*
X021356Y010364D02*
X014095Y010364D01*
X014213Y010246D02*
X021179Y010246D01*
X021113Y010127D02*
X014332Y010127D01*
X014450Y010009D02*
X021093Y010009D01*
X021775Y009772D02*
X021865Y009772D01*
X021865Y009890D02*
X021834Y009890D01*
X021886Y009653D02*
X021771Y009653D01*
X021771Y009535D02*
X022860Y009535D01*
X022860Y009653D02*
X022717Y009653D01*
X022739Y009772D02*
X022860Y009772D01*
X022661Y009487D02*
X022767Y009382D01*
X022767Y008678D01*
X022661Y008573D01*
X021958Y008573D01*
X021852Y008678D01*
X021852Y009382D01*
X021958Y009487D01*
X022661Y009487D01*
X022733Y009416D02*
X022860Y009416D01*
X022860Y009298D02*
X022767Y009298D01*
X022767Y009179D02*
X022860Y009179D01*
X022767Y009061D02*
X028557Y009061D01*
X028557Y009179D02*
X023775Y009179D01*
X023775Y009298D02*
X028557Y009298D01*
X028557Y009416D02*
X023775Y009416D01*
X023775Y009535D02*
X028557Y009535D01*
X028557Y009653D02*
X023775Y009653D01*
X023775Y009772D02*
X028557Y009772D01*
X028557Y009890D02*
X023766Y009890D01*
X023703Y010127D02*
X028557Y010127D01*
X028557Y010009D02*
X022330Y010009D01*
X022330Y009890D02*
X022273Y009890D01*
X022273Y009772D02*
X022330Y009772D01*
X022330Y009653D02*
X022273Y009653D01*
X021887Y009416D02*
X021771Y009416D01*
X021771Y009298D02*
X021852Y009298D01*
X021852Y009179D02*
X021771Y009179D01*
X021771Y009061D02*
X021852Y009061D01*
X021852Y008942D02*
X021771Y008942D01*
X021771Y008824D02*
X021852Y008824D01*
X021852Y008705D02*
X021771Y008705D01*
X021771Y008587D02*
X021944Y008587D01*
X021939Y008468D02*
X021771Y008468D01*
X021771Y008350D02*
X021860Y008350D01*
X022696Y008468D02*
X022856Y008468D01*
X022856Y008350D02*
X022775Y008350D01*
X022775Y008231D02*
X022856Y008231D01*
X022856Y008178D02*
X022962Y008073D01*
X023665Y008073D01*
X023771Y008178D01*
X023771Y008882D01*
X023665Y008987D01*
X022962Y008987D01*
X022856Y008882D01*
X022856Y008178D01*
X022922Y008113D02*
X022775Y008113D01*
X022777Y007994D02*
X028557Y007994D01*
X028557Y007876D02*
X026182Y007876D01*
X026333Y007813D02*
X025998Y007951D01*
X025637Y007951D01*
X025302Y007813D01*
X025046Y007557D01*
X024908Y007223D01*
X024908Y006861D01*
X025046Y006527D01*
X025302Y006271D01*
X025637Y006132D01*
X025998Y006132D01*
X026333Y006271D01*
X026589Y006527D01*
X026727Y006861D01*
X026727Y007223D01*
X026589Y007557D01*
X026333Y007813D01*
X026389Y007757D02*
X028557Y007757D01*
X028557Y007639D02*
X026507Y007639D01*
X026604Y007520D02*
X028557Y007520D01*
X028557Y007402D02*
X026653Y007402D01*
X026702Y007283D02*
X028557Y007283D01*
X028557Y007165D02*
X026727Y007165D01*
X026727Y007046D02*
X028557Y007046D01*
X028557Y006928D02*
X026727Y006928D01*
X026706Y006809D02*
X028557Y006809D01*
X028557Y006691D02*
X026656Y006691D01*
X026607Y006572D02*
X028557Y006572D01*
X028557Y006454D02*
X026515Y006454D01*
X026397Y006335D02*
X028557Y006335D01*
X028557Y006217D02*
X026202Y006217D01*
X025971Y005816D02*
X025795Y005889D01*
X025604Y005889D01*
X025427Y005816D01*
X025292Y005681D01*
X025219Y005504D01*
X025219Y004713D01*
X025292Y004537D01*
X025427Y004402D01*
X025604Y004329D01*
X025795Y004329D01*
X025971Y004402D01*
X026106Y004537D01*
X026179Y004713D01*
X026179Y005504D01*
X026106Y005681D01*
X025971Y005816D01*
X026044Y005743D02*
X026354Y005743D01*
X026292Y005681D02*
X026427Y005816D01*
X026604Y005889D01*
X026795Y005889D01*
X026971Y005816D01*
X027106Y005681D01*
X027179Y005504D01*
X027179Y004713D01*
X027106Y004537D01*
X026971Y004402D01*
X026795Y004329D01*
X026604Y004329D01*
X026427Y004402D01*
X026292Y004537D01*
X026219Y004713D01*
X026219Y005504D01*
X026292Y005681D01*
X026269Y005624D02*
X026130Y005624D01*
X026179Y005506D02*
X026220Y005506D01*
X026219Y005387D02*
X026179Y005387D01*
X026179Y005269D02*
X026219Y005269D01*
X026219Y005150D02*
X026179Y005150D01*
X026179Y005032D02*
X026219Y005032D01*
X026219Y004913D02*
X026179Y004913D01*
X026179Y004795D02*
X026219Y004795D01*
X026235Y004676D02*
X026164Y004676D01*
X026115Y004558D02*
X026284Y004558D01*
X026390Y004439D02*
X026008Y004439D01*
X025390Y004439D02*
X025008Y004439D01*
X025115Y004558D02*
X025284Y004558D01*
X025235Y004676D02*
X025164Y004676D01*
X025179Y004795D02*
X025219Y004795D01*
X025219Y004913D02*
X025179Y004913D01*
X025179Y005032D02*
X025219Y005032D01*
X025219Y005150D02*
X025179Y005150D01*
X025179Y005269D02*
X025219Y005269D01*
X025219Y005387D02*
X025179Y005387D01*
X025179Y005506D02*
X025220Y005506D01*
X025269Y005624D02*
X025130Y005624D01*
X025044Y005743D02*
X025354Y005743D01*
X025537Y005861D02*
X024862Y005861D01*
X024708Y005980D02*
X028557Y005980D01*
X028557Y006098D02*
X024666Y006098D01*
X024624Y006217D02*
X025433Y006217D01*
X025238Y006335D02*
X024582Y006335D01*
X024538Y006454D02*
X025119Y006454D01*
X025028Y006572D02*
X024392Y006572D01*
X024115Y006691D02*
X024978Y006691D01*
X024929Y006809D02*
X023840Y006809D01*
X023565Y006928D02*
X024908Y006928D01*
X024908Y007046D02*
X023290Y007046D01*
X022860Y007283D02*
X022739Y007283D01*
X022860Y007402D02*
X022464Y007402D01*
X022189Y007520D02*
X022860Y007520D01*
X022860Y007639D02*
X022727Y007639D01*
X022775Y007757D02*
X022860Y007757D01*
X022860Y007876D02*
X022775Y007876D01*
X023705Y008113D02*
X028557Y008113D01*
X028557Y008231D02*
X023771Y008231D01*
X023771Y008350D02*
X028557Y008350D01*
X028557Y008468D02*
X023771Y008468D01*
X023771Y008587D02*
X028557Y008587D01*
X028557Y008705D02*
X023771Y008705D01*
X023771Y008824D02*
X028557Y008824D01*
X028557Y008942D02*
X023710Y008942D01*
X022917Y008942D02*
X022767Y008942D01*
X022767Y008824D02*
X022856Y008824D01*
X022856Y008705D02*
X022767Y008705D01*
X022856Y008587D02*
X022675Y008587D01*
X023775Y007876D02*
X025453Y007876D01*
X025246Y007757D02*
X023775Y007757D01*
X023775Y007639D02*
X025128Y007639D01*
X025031Y007520D02*
X023775Y007520D01*
X023775Y007402D02*
X024982Y007402D01*
X024933Y007283D02*
X023775Y007283D01*
X023757Y007165D02*
X024908Y007165D01*
X023424Y006335D02*
X021551Y006335D01*
X021568Y006353D02*
X021278Y006063D01*
X020868Y006063D01*
X020578Y006353D01*
X020578Y006763D01*
X020868Y007053D01*
X021278Y007053D01*
X021568Y006763D01*
X021568Y006353D01*
X021568Y006454D02*
X023149Y006454D01*
X022873Y006572D02*
X021568Y006572D01*
X021568Y006691D02*
X022598Y006691D01*
X022323Y006809D02*
X021522Y006809D01*
X021404Y006928D02*
X022048Y006928D01*
X021773Y007046D02*
X021285Y007046D01*
X021266Y007283D02*
X016624Y007283D01*
X016673Y007332D02*
X016746Y007509D01*
X016746Y008300D01*
X016673Y008476D01*
X016538Y008611D01*
X016362Y008684D01*
X016171Y008684D01*
X015994Y008611D01*
X015859Y008476D01*
X015786Y008300D01*
X015786Y007509D01*
X015859Y007332D01*
X015994Y007197D01*
X016171Y007124D01*
X016362Y007124D01*
X016538Y007197D01*
X016673Y007332D01*
X016702Y007402D02*
X021188Y007402D01*
X021171Y007520D02*
X016746Y007520D01*
X016746Y007639D02*
X021171Y007639D01*
X021171Y007757D02*
X016746Y007757D01*
X016746Y007876D02*
X021171Y007876D01*
X021171Y007994D02*
X016746Y007994D01*
X016746Y008113D02*
X021171Y008113D01*
X021171Y008231D02*
X016746Y008231D01*
X016726Y008350D02*
X021171Y008350D01*
X021171Y008468D02*
X016677Y008468D01*
X016563Y008587D02*
X021171Y008587D01*
X021171Y008705D02*
X017305Y008705D01*
X017341Y008824D02*
X021171Y008824D01*
X021171Y008942D02*
X017341Y008942D01*
X017341Y009179D02*
X018699Y009179D01*
X018601Y009298D02*
X017331Y009298D01*
X016596Y009298D02*
X012878Y009298D01*
X012759Y009416D02*
X014364Y009416D01*
X014245Y009535D02*
X012641Y009535D01*
X012522Y009653D02*
X014127Y009653D01*
X014008Y009772D02*
X012483Y009772D01*
X012483Y009890D02*
X013890Y009890D01*
X013771Y010009D02*
X012483Y010009D01*
X012483Y010127D02*
X013341Y010127D01*
X013306Y010246D02*
X012483Y010246D01*
X012483Y010364D02*
X013306Y010364D01*
X013306Y010483D02*
X012483Y010483D01*
X012483Y010601D02*
X013306Y010601D01*
X013317Y010720D02*
X012483Y010720D01*
X012483Y010838D02*
X021865Y010838D01*
X021867Y010720D02*
X014050Y010720D01*
X014062Y010601D02*
X021961Y010601D01*
X022273Y010601D02*
X022330Y010601D01*
X022330Y010720D02*
X022273Y010720D01*
X022273Y010838D02*
X022330Y010838D01*
X022330Y010957D02*
X022273Y010957D01*
X022330Y011055D02*
X022739Y011055D01*
X022739Y011324D01*
X022728Y011365D01*
X022707Y011402D01*
X022677Y011431D01*
X022641Y011452D01*
X022600Y011463D01*
X022330Y011463D01*
X022330Y011055D01*
X022330Y011075D02*
X022273Y011075D01*
X022273Y011194D02*
X022330Y011194D01*
X022330Y011312D02*
X022273Y011312D01*
X022273Y011431D02*
X022330Y011431D01*
X022678Y011431D02*
X024908Y011431D01*
X024908Y011349D02*
X025046Y011015D01*
X025302Y010759D01*
X025637Y010620D01*
X025998Y010620D01*
X026333Y010759D01*
X026589Y011015D01*
X026727Y011349D01*
X026727Y011711D01*
X026589Y012045D01*
X026333Y012301D01*
X025998Y012440D01*
X025637Y012440D01*
X025302Y012301D01*
X025046Y012045D01*
X024908Y011711D01*
X024908Y011349D01*
X024923Y011312D02*
X022739Y011312D01*
X022739Y011194D02*
X024972Y011194D01*
X025021Y011075D02*
X022739Y011075D01*
X021865Y011075D02*
X012483Y011075D01*
X012483Y010957D02*
X021865Y010957D01*
X021865Y011194D02*
X012483Y011194D01*
X012483Y011312D02*
X021865Y011312D01*
X021926Y011431D02*
X012483Y011431D01*
X012483Y011549D02*
X024908Y011549D01*
X024908Y011668D02*
X012483Y011668D01*
X012579Y011786D02*
X014344Y011786D01*
X014302Y011828D02*
X014407Y011723D01*
X014952Y011723D01*
X015058Y011828D01*
X015058Y011881D01*
X017250Y011881D01*
X017250Y011848D01*
X017356Y011743D01*
X017901Y011743D01*
X018007Y011848D01*
X018007Y012393D01*
X017966Y012434D01*
X020074Y012434D01*
X020209Y012569D01*
X020436Y012796D01*
X021030Y012796D01*
X021030Y012753D01*
X021135Y012648D01*
X021681Y012648D01*
X021786Y012753D01*
X021786Y013299D01*
X021681Y013404D01*
X021135Y013404D01*
X021030Y013299D01*
X021030Y013256D01*
X020246Y013256D01*
X019884Y012894D01*
X017963Y012894D01*
X017963Y012960D01*
X017858Y013066D01*
X017313Y013066D01*
X017207Y012960D01*
X017207Y012415D01*
X017250Y012372D01*
X017250Y012361D01*
X015058Y012361D01*
X015058Y012374D01*
X014952Y012479D01*
X014407Y012479D01*
X014302Y012374D01*
X014302Y011828D01*
X014302Y011905D02*
X012664Y011905D01*
X012664Y012023D02*
X014302Y012023D01*
X014302Y012142D02*
X012664Y012142D01*
X012664Y012260D02*
X014302Y012260D01*
X014307Y012379D02*
X012664Y012379D01*
X012584Y012497D02*
X017207Y012497D01*
X017207Y012616D02*
X012449Y012616D01*
X012551Y012734D02*
X017207Y012734D01*
X017207Y012853D02*
X012551Y012853D01*
X012551Y012971D02*
X017218Y012971D01*
X017952Y012971D02*
X019961Y012971D01*
X020079Y013090D02*
X012551Y013090D01*
X012551Y013208D02*
X020198Y013208D01*
X020374Y012734D02*
X021049Y012734D01*
X021767Y012734D02*
X028557Y012734D01*
X028557Y012616D02*
X020256Y012616D01*
X020209Y012569D02*
X020209Y012569D01*
X020137Y012497D02*
X028557Y012497D01*
X028557Y012379D02*
X026146Y012379D01*
X026374Y012260D02*
X028557Y012260D01*
X028557Y012142D02*
X026492Y012142D01*
X026598Y012023D02*
X028557Y012023D01*
X028557Y011905D02*
X026647Y011905D01*
X026696Y011786D02*
X028557Y011786D01*
X028557Y011668D02*
X026727Y011668D01*
X026727Y011549D02*
X028557Y011549D01*
X028557Y011431D02*
X026727Y011431D01*
X026712Y011312D02*
X028557Y011312D01*
X028557Y011194D02*
X026663Y011194D01*
X026614Y011075D02*
X028557Y011075D01*
X028557Y010957D02*
X026530Y010957D01*
X026412Y010838D02*
X028557Y010838D01*
X028557Y010720D02*
X026238Y010720D01*
X025397Y010720D02*
X023755Y010720D01*
X023750Y010838D02*
X025223Y010838D01*
X025105Y010957D02*
X023626Y010957D01*
X023755Y010601D02*
X028557Y010601D01*
X028557Y010483D02*
X023755Y010483D01*
X023755Y010364D02*
X028557Y010364D01*
X028557Y010246D02*
X023755Y010246D01*
X024939Y011786D02*
X017945Y011786D01*
X018007Y011905D02*
X024988Y011905D01*
X025037Y012023D02*
X018007Y012023D01*
X018007Y012142D02*
X025143Y012142D01*
X025261Y012260D02*
X018007Y012260D01*
X018007Y012379D02*
X025489Y012379D01*
X028557Y012853D02*
X021786Y012853D01*
X021786Y012971D02*
X028557Y012971D01*
X028557Y013090D02*
X021786Y013090D01*
X021786Y013208D02*
X028557Y013208D01*
X028557Y013327D02*
X021758Y013327D01*
X021058Y013327D02*
X012551Y013327D01*
X012551Y013445D02*
X028557Y013445D01*
X028557Y014512D02*
X026569Y014512D01*
X026680Y014630D02*
X028557Y014630D01*
X028557Y014749D02*
X026729Y014749D01*
X026769Y014867D02*
X028557Y014867D01*
X028557Y014986D02*
X026769Y014986D01*
X026764Y015104D02*
X028557Y015104D01*
X028557Y015223D02*
X026715Y015223D01*
X026655Y015341D02*
X028557Y015341D01*
X028557Y015460D02*
X026536Y015460D01*
X026303Y015578D02*
X028557Y015578D01*
X025436Y016408D02*
X024068Y016408D01*
X024067Y016409D02*
X023916Y016409D01*
X023916Y015989D01*
X023836Y015989D01*
X023836Y015909D01*
X023916Y015909D01*
X023916Y015989D01*
X024336Y015989D01*
X024336Y016140D01*
X024067Y016409D01*
X023916Y016408D02*
X023836Y016408D01*
X023836Y016409D02*
X023686Y016409D01*
X023416Y016140D01*
X023416Y015989D01*
X023836Y015989D01*
X023836Y016409D01*
X023836Y016289D02*
X023916Y016289D01*
X023916Y016171D02*
X023836Y016171D01*
X023836Y016052D02*
X023916Y016052D01*
X023916Y015934D02*
X025176Y015934D01*
X025176Y016052D02*
X024336Y016052D01*
X024305Y016171D02*
X025199Y016171D01*
X025317Y016289D02*
X024187Y016289D01*
X023684Y016408D02*
X016347Y016408D01*
X016361Y016289D02*
X023566Y016289D01*
X023447Y016171D02*
X016361Y016171D01*
X016361Y016052D02*
X023416Y016052D01*
X023416Y015815D02*
X020600Y015815D01*
X020719Y015697D02*
X023478Y015697D01*
X023543Y015578D02*
X023597Y015578D01*
X023836Y015697D02*
X023916Y015697D01*
X023916Y015815D02*
X023836Y015815D01*
X023836Y015934D02*
X019002Y015934D01*
X018652Y015632D02*
X020443Y015632D01*
X021010Y015066D01*
X021010Y014400D01*
X021447Y013963D01*
X021357Y014393D02*
X023151Y014393D01*
X022964Y014512D02*
X021250Y014512D01*
X021250Y014630D02*
X022853Y014630D01*
X022804Y014749D02*
X021250Y014749D01*
X021250Y014867D02*
X022764Y014867D01*
X022764Y014986D02*
X021250Y014986D01*
X021250Y015104D02*
X022768Y015104D01*
X022817Y015223D02*
X021193Y015223D01*
X021074Y015341D02*
X022878Y015341D01*
X022996Y015460D02*
X020956Y015460D01*
X020837Y015578D02*
X023229Y015578D01*
X024156Y015578D02*
X025349Y015578D01*
X025230Y015697D02*
X024274Y015697D01*
X024336Y015815D02*
X025176Y015815D01*
X020395Y015341D02*
X019012Y015341D01*
X018274Y015815D02*
X016328Y015815D01*
X016361Y015934D02*
X018302Y015934D01*
X017243Y012379D02*
X015053Y012379D01*
X014699Y012121D02*
X014680Y012101D01*
X014699Y012121D02*
X017629Y012121D01*
X017312Y011786D02*
X015016Y011786D01*
X012003Y011549D02*
X005840Y011549D01*
X005959Y011431D02*
X012003Y011431D01*
X012003Y011312D02*
X005977Y011312D01*
X005977Y011194D02*
X012003Y011194D01*
X012003Y011075D02*
X005977Y011075D01*
X005977Y010957D02*
X012003Y010957D01*
X012003Y010838D02*
X005977Y010838D01*
X005977Y010720D02*
X012003Y010720D01*
X012003Y010601D02*
X005977Y010601D01*
X005977Y010483D02*
X012003Y010483D01*
X012003Y010364D02*
X005977Y010364D01*
X005977Y010246D02*
X012003Y010246D01*
X012003Y010127D02*
X005977Y010127D01*
X005977Y010009D02*
X012003Y010009D01*
X012003Y009890D02*
X005977Y009890D01*
X005977Y009772D02*
X012003Y009772D01*
X012003Y009653D02*
X005977Y009653D01*
X005977Y009535D02*
X012007Y009535D01*
X012080Y009416D02*
X005977Y009416D01*
X005977Y009298D02*
X012199Y009298D01*
X012317Y009179D02*
X005977Y009179D01*
X005977Y009061D02*
X012436Y009061D01*
X012554Y008942D02*
X005977Y008942D01*
X005977Y008824D02*
X006440Y008824D01*
X006321Y008705D02*
X005977Y008705D01*
X005977Y008587D02*
X006203Y008587D01*
X006168Y008468D02*
X005977Y008468D01*
X006098Y008350D02*
X006168Y008350D01*
X006168Y008231D02*
X006125Y008231D01*
X006125Y008113D02*
X006210Y008113D01*
X006153Y007994D02*
X006125Y007994D01*
X005369Y007994D02*
X004238Y007994D01*
X004356Y007876D02*
X005369Y007876D01*
X005369Y008113D02*
X004119Y008113D01*
X002870Y007520D02*
X002818Y007520D01*
X002450Y006809D02*
X002334Y006809D01*
X001907Y007402D02*
X000731Y007402D01*
X000731Y007520D02*
X001967Y007520D01*
X001659Y007639D02*
X000731Y007639D01*
X000731Y007757D02*
X001541Y007757D01*
X001422Y007876D02*
X000731Y007876D01*
X000731Y007994D02*
X001383Y007994D01*
X001383Y008113D02*
X000731Y008113D01*
X000731Y008231D02*
X001383Y008231D01*
X001383Y008350D02*
X000731Y008350D01*
X000731Y008468D02*
X001383Y008468D01*
X001383Y008587D02*
X000731Y008587D01*
X000731Y008705D02*
X001383Y008705D01*
X001383Y008824D02*
X000731Y008824D01*
X000731Y008942D02*
X001383Y008942D01*
X001383Y009061D02*
X000731Y009061D01*
X000731Y009179D02*
X001383Y009179D01*
X001383Y009298D02*
X000731Y009298D01*
X000731Y009416D02*
X001383Y009416D01*
X001383Y009535D02*
X000731Y009535D01*
X000731Y009653D02*
X001383Y009653D01*
X001383Y009772D02*
X000731Y009772D01*
X000731Y009890D02*
X001383Y009890D01*
X001383Y010009D02*
X000731Y010009D01*
X000731Y010127D02*
X001383Y010127D01*
X001383Y010246D02*
X000731Y010246D01*
X000731Y010364D02*
X001383Y010364D01*
X001383Y010483D02*
X000731Y010483D01*
X000731Y010601D02*
X001383Y010601D01*
X001383Y010720D02*
X000731Y010720D01*
X000731Y010838D02*
X001383Y010838D01*
X001383Y010957D02*
X000731Y010957D01*
X000731Y011075D02*
X001383Y011075D01*
X001383Y011194D02*
X000731Y011194D01*
X000731Y011312D02*
X001383Y011312D01*
X001383Y011431D02*
X000731Y011431D01*
X000731Y011549D02*
X001383Y011549D01*
X001383Y011668D02*
X000731Y011668D01*
X000731Y011786D02*
X001383Y011786D01*
X001383Y011905D02*
X000731Y011905D01*
X000731Y012023D02*
X001383Y012023D01*
X001383Y012142D02*
X000731Y012142D01*
X000731Y012260D02*
X001383Y012260D01*
X001383Y012379D02*
X000731Y012379D01*
X000731Y012497D02*
X001383Y012497D01*
X001383Y012616D02*
X000731Y012616D01*
X000731Y012734D02*
X001383Y012734D01*
X001383Y012853D02*
X000731Y012853D01*
X000731Y012971D02*
X001383Y012971D01*
X001383Y013090D02*
X000731Y013090D01*
X000731Y013208D02*
X001383Y013208D01*
X002665Y013208D02*
X003688Y013208D01*
X003745Y013090D02*
X002801Y013090D01*
X002876Y012971D02*
X003745Y012971D01*
X003745Y012853D02*
X002925Y012853D01*
X002927Y012734D02*
X003745Y012734D01*
X003745Y012616D02*
X002918Y012616D01*
X002869Y012497D02*
X003745Y012497D01*
X003745Y012379D02*
X002784Y012379D01*
X002623Y012260D02*
X003745Y012260D01*
X004520Y012497D02*
X009699Y012497D01*
X009699Y012616D02*
X004520Y012616D01*
X004520Y012734D02*
X009699Y012734D01*
X009699Y012853D02*
X004520Y012853D01*
X004520Y012971D02*
X009699Y012971D01*
X009781Y013090D02*
X004520Y013090D01*
X004455Y013682D02*
X006983Y013682D01*
X006943Y013801D02*
X004337Y013801D01*
X004218Y013919D02*
X006943Y013919D01*
X006943Y014038D02*
X004100Y014038D01*
X003981Y014156D02*
X006943Y014156D01*
X006951Y014275D02*
X003863Y014275D01*
X002858Y014393D02*
X006973Y014393D01*
X006952Y014512D02*
X002757Y014512D01*
X002559Y014630D02*
X006833Y014630D01*
X007023Y015091D02*
X007299Y014815D01*
X007376Y014737D01*
X007376Y014953D01*
X007328Y015002D01*
X007328Y015789D01*
X007147Y015969D01*
X002601Y015969D01*
X002662Y015938D01*
X002727Y015891D01*
X002785Y015834D01*
X002832Y015768D01*
X002869Y015696D01*
X002894Y015619D01*
X002904Y015557D01*
X002450Y015557D01*
X002450Y015440D01*
X002904Y015440D01*
X002894Y015378D01*
X002869Y015301D01*
X002832Y015229D01*
X002785Y015164D01*
X002727Y015106D01*
X002706Y015091D01*
X007023Y015091D01*
X007128Y014986D02*
X007344Y014986D01*
X007328Y015104D02*
X002724Y015104D01*
X002827Y015223D02*
X007328Y015223D01*
X007328Y015341D02*
X002882Y015341D01*
X002900Y015578D02*
X007328Y015578D01*
X007328Y015460D02*
X002450Y015460D01*
X002334Y015460D02*
X001843Y015460D01*
X001881Y015440D02*
X001891Y015378D01*
X001916Y015301D01*
X001952Y015229D01*
X002000Y015164D01*
X002057Y015106D01*
X002079Y015091D01*
X002069Y015091D01*
X002013Y015035D01*
X001843Y014907D01*
X001843Y015750D01*
X002062Y015969D01*
X002183Y015969D01*
X002123Y015938D01*
X002057Y015891D01*
X002000Y015834D01*
X001952Y015768D01*
X001916Y015696D01*
X001891Y015619D01*
X001881Y015557D01*
X002334Y015557D01*
X002334Y015440D01*
X001881Y015440D01*
X001903Y015341D02*
X001843Y015341D01*
X001843Y015223D02*
X001957Y015223D01*
X002060Y015104D02*
X001843Y015104D01*
X001843Y014986D02*
X001947Y014986D01*
X001884Y015578D02*
X001843Y015578D01*
X001843Y015697D02*
X001916Y015697D01*
X001908Y015815D02*
X001986Y015815D01*
X002027Y015934D02*
X002116Y015934D01*
X002669Y015934D02*
X007183Y015934D01*
X007302Y015815D02*
X002798Y015815D01*
X002869Y015697D02*
X007328Y015697D01*
X007376Y014867D02*
X007247Y014867D01*
X007365Y014749D02*
X007376Y014749D01*
X007181Y012379D02*
X004617Y012379D01*
X002450Y011786D02*
X002334Y011786D01*
X002334Y011668D02*
X002450Y011668D01*
X002450Y011549D02*
X002334Y011549D01*
X002334Y011431D02*
X002450Y011431D01*
X002097Y011786D02*
X001843Y011786D01*
X001843Y011668D02*
X001977Y011668D01*
X001911Y011549D02*
X001843Y011549D01*
X001843Y011431D02*
X001882Y011431D01*
X001843Y010364D02*
X002014Y010364D01*
X001921Y010246D02*
X001843Y010246D01*
X001843Y010127D02*
X001872Y010127D01*
X001858Y010009D02*
X001843Y010009D01*
X001843Y009890D02*
X001858Y009890D01*
X001843Y009772D02*
X001903Y009772D01*
X001843Y009653D02*
X001970Y009653D01*
X002089Y009535D02*
X001843Y009535D01*
X001843Y009416D02*
X002638Y009416D01*
X002756Y009298D02*
X001843Y009298D01*
X001843Y009179D02*
X002800Y009179D01*
X002800Y009061D02*
X002696Y009061D01*
X002088Y009061D02*
X001843Y009061D01*
X001843Y008942D02*
X001970Y008942D01*
X001903Y008824D02*
X001843Y008824D01*
X001843Y008705D02*
X001858Y008705D01*
X001843Y008587D02*
X001858Y008587D01*
X001843Y008468D02*
X001872Y008468D01*
X001843Y008350D02*
X001921Y008350D01*
X001843Y008231D02*
X002014Y008231D01*
X001843Y008113D02*
X002194Y008113D01*
X000731Y006572D02*
X014966Y006572D01*
X014966Y006454D02*
X007561Y006454D01*
X007621Y006335D02*
X014966Y006335D01*
X014966Y006217D02*
X007621Y006217D01*
X007621Y006098D02*
X014966Y006098D01*
X014966Y005980D02*
X007621Y005980D01*
X006925Y006454D02*
X000731Y006454D01*
X002664Y005387D02*
X014966Y005387D01*
X014966Y005506D02*
X002801Y005506D01*
X002876Y005624D02*
X014966Y005624D01*
X015566Y005624D02*
X016788Y005624D01*
X016670Y005506D02*
X015566Y005506D01*
X015566Y005387D02*
X016551Y005387D01*
X016497Y005333D02*
X016405Y005333D01*
X016284Y005282D01*
X016191Y005189D01*
X016141Y005068D01*
X016141Y004937D01*
X016191Y004816D01*
X016284Y004723D01*
X016405Y004673D01*
X016537Y004673D01*
X016658Y004723D01*
X016751Y004816D01*
X016801Y004937D01*
X016801Y005028D01*
X017560Y005788D01*
X019560Y005788D01*
X019842Y006069D01*
X019857Y006055D01*
X020267Y006055D01*
X020557Y006345D01*
X020557Y006755D01*
X020267Y007045D01*
X019857Y007045D01*
X019567Y006755D01*
X019567Y006402D01*
X019382Y006218D01*
X017382Y006218D01*
X017256Y006092D01*
X016497Y005333D01*
X016270Y005269D02*
X015566Y005269D01*
X015566Y005150D02*
X016175Y005150D01*
X016141Y005032D02*
X015566Y005032D01*
X015566Y004913D02*
X016151Y004913D01*
X016212Y004795D02*
X015533Y004795D01*
X015431Y004676D02*
X016397Y004676D01*
X016545Y004676D02*
X024235Y004676D01*
X024219Y004795D02*
X016730Y004795D01*
X016791Y004913D02*
X024219Y004913D01*
X024219Y005032D02*
X016804Y005032D01*
X016923Y005150D02*
X024219Y005150D01*
X024219Y005269D02*
X017041Y005269D01*
X017160Y005387D02*
X024219Y005387D01*
X024220Y005506D02*
X017278Y005506D01*
X017397Y005624D02*
X024198Y005624D01*
X024156Y005743D02*
X017515Y005743D01*
X017144Y005980D02*
X015566Y005980D01*
X015566Y006098D02*
X017262Y006098D01*
X017381Y006217D02*
X015566Y006217D01*
X015566Y006335D02*
X019499Y006335D01*
X019567Y006454D02*
X015566Y006454D01*
X015566Y006572D02*
X019567Y006572D01*
X019567Y006691D02*
X015566Y006691D01*
X015566Y006809D02*
X019621Y006809D01*
X019739Y006928D02*
X015566Y006928D01*
X015566Y007046D02*
X020862Y007046D01*
X020743Y006928D02*
X020384Y006928D01*
X020502Y006809D02*
X020625Y006809D01*
X020578Y006691D02*
X020557Y006691D01*
X020557Y006572D02*
X020578Y006572D01*
X020578Y006454D02*
X020557Y006454D01*
X020547Y006335D02*
X020596Y006335D01*
X020714Y006217D02*
X020428Y006217D01*
X020310Y006098D02*
X020833Y006098D01*
X021314Y006098D02*
X023974Y006098D01*
X024071Y005980D02*
X019752Y005980D01*
X019634Y005861D02*
X024114Y005861D01*
X023699Y006217D02*
X021432Y006217D01*
X021497Y007165D02*
X016459Y007165D01*
X016073Y007165D02*
X015566Y007165D01*
X015624Y007283D02*
X015909Y007283D01*
X015831Y007402D02*
X015702Y007402D01*
X015746Y007520D02*
X015786Y007520D01*
X015786Y007639D02*
X015746Y007639D01*
X015746Y007757D02*
X015786Y007757D01*
X015786Y007876D02*
X015746Y007876D01*
X015746Y007994D02*
X015786Y007994D01*
X015786Y008113D02*
X015746Y008113D01*
X015746Y008231D02*
X015786Y008231D01*
X015807Y008350D02*
X015726Y008350D01*
X015677Y008468D02*
X015856Y008468D01*
X015970Y008587D02*
X015563Y008587D01*
X014970Y008587D02*
X014523Y008587D01*
X014507Y008598D02*
X014443Y008630D01*
X014374Y008653D01*
X014306Y008663D01*
X014306Y007944D01*
X014226Y007944D01*
X014226Y007864D01*
X013806Y007864D01*
X013806Y007568D01*
X013818Y007496D01*
X013840Y007428D01*
X013873Y007363D01*
X013915Y007304D01*
X013967Y007253D01*
X014025Y007211D01*
X014090Y007178D01*
X014159Y007155D01*
X014226Y007145D01*
X014226Y007864D01*
X014306Y007864D01*
X014306Y007145D01*
X014374Y007155D01*
X014443Y007178D01*
X014507Y007211D01*
X014566Y007253D01*
X014617Y007304D01*
X014660Y007363D01*
X014693Y007428D01*
X014715Y007496D01*
X014726Y007568D01*
X014726Y007864D01*
X014306Y007864D01*
X014306Y007944D01*
X014726Y007944D01*
X014726Y008240D01*
X014715Y008312D01*
X014693Y008381D01*
X014660Y008445D01*
X014617Y008504D01*
X014566Y008555D01*
X014507Y008598D01*
X014643Y008468D02*
X014856Y008468D01*
X014807Y008350D02*
X014703Y008350D01*
X014726Y008231D02*
X014786Y008231D01*
X014786Y008113D02*
X014726Y008113D01*
X014726Y007994D02*
X014786Y007994D01*
X014786Y007876D02*
X014306Y007876D01*
X014226Y007876D02*
X013746Y007876D01*
X013806Y007944D02*
X014226Y007944D01*
X014226Y008663D01*
X014159Y008653D01*
X014090Y008630D01*
X014025Y008598D01*
X013967Y008555D01*
X013915Y008504D01*
X013873Y008445D01*
X013840Y008381D01*
X013818Y008312D01*
X013806Y008240D01*
X013806Y007944D01*
X013806Y007994D02*
X013746Y007994D01*
X013746Y008113D02*
X013806Y008113D01*
X013806Y008231D02*
X013746Y008231D01*
X013746Y008300D02*
X013673Y008476D01*
X013538Y008611D01*
X013362Y008684D01*
X013171Y008684D01*
X012994Y008611D01*
X012859Y008476D01*
X012786Y008300D01*
X012786Y007509D01*
X012859Y007332D01*
X012994Y007197D01*
X013171Y007124D01*
X013362Y007124D01*
X013538Y007197D01*
X013673Y007332D01*
X013746Y007509D01*
X013746Y008300D01*
X013726Y008350D02*
X013830Y008350D01*
X013889Y008468D02*
X013677Y008468D01*
X013563Y008587D02*
X014010Y008587D01*
X014226Y008587D02*
X014306Y008587D01*
X014306Y008468D02*
X014226Y008468D01*
X014226Y008350D02*
X014306Y008350D01*
X014306Y008231D02*
X014226Y008231D01*
X014226Y008113D02*
X014306Y008113D01*
X014306Y007994D02*
X014226Y007994D01*
X014226Y007757D02*
X014306Y007757D01*
X014306Y007639D02*
X014226Y007639D01*
X014226Y007520D02*
X014306Y007520D01*
X014306Y007402D02*
X014226Y007402D01*
X014226Y007283D02*
X014306Y007283D01*
X014306Y007165D02*
X014226Y007165D01*
X014131Y007165D02*
X013459Y007165D01*
X013624Y007283D02*
X013937Y007283D01*
X013853Y007402D02*
X013702Y007402D01*
X013746Y007520D02*
X013814Y007520D01*
X013806Y007639D02*
X013746Y007639D01*
X013746Y007757D02*
X013806Y007757D01*
X014402Y007165D02*
X014966Y007165D01*
X014966Y007046D02*
X010020Y007046D01*
X010128Y007154D02*
X009847Y006873D01*
X009449Y006873D01*
X009168Y007154D01*
X009168Y007552D01*
X009449Y007833D01*
X009847Y007833D01*
X010128Y007552D01*
X010128Y007154D01*
X010128Y007165D02*
X011073Y007165D01*
X010994Y007197D02*
X011171Y007124D01*
X011362Y007124D01*
X011538Y007197D01*
X011673Y007332D01*
X011746Y007509D01*
X011746Y008300D01*
X011673Y008476D01*
X011538Y008611D01*
X011362Y008684D01*
X011171Y008684D01*
X010994Y008611D01*
X010859Y008476D01*
X010786Y008300D01*
X010786Y007509D01*
X010859Y007332D01*
X010994Y007197D01*
X010909Y007283D02*
X010128Y007283D01*
X010128Y007402D02*
X010831Y007402D01*
X010786Y007520D02*
X010128Y007520D01*
X010041Y007639D02*
X010786Y007639D01*
X010786Y007757D02*
X009923Y007757D01*
X009847Y007873D02*
X010128Y008154D01*
X010128Y008552D01*
X009847Y008833D01*
X009449Y008833D01*
X009168Y008552D01*
X009168Y008154D01*
X009449Y007873D01*
X009847Y007873D01*
X009850Y007876D02*
X010786Y007876D01*
X010786Y007994D02*
X009968Y007994D01*
X010087Y008113D02*
X010786Y008113D01*
X010786Y008231D02*
X010128Y008231D01*
X010128Y008350D02*
X010807Y008350D01*
X010856Y008468D02*
X010128Y008468D01*
X010093Y008587D02*
X010970Y008587D01*
X011563Y008587D02*
X011970Y008587D01*
X011994Y008611D02*
X011859Y008476D01*
X011786Y008300D01*
X011786Y007509D01*
X011859Y007332D01*
X011994Y007197D01*
X012171Y007124D01*
X012362Y007124D01*
X012538Y007197D01*
X012673Y007332D01*
X012746Y007509D01*
X012746Y008300D01*
X012673Y008476D01*
X012538Y008611D01*
X012362Y008684D01*
X012171Y008684D01*
X011994Y008611D01*
X011856Y008468D02*
X011677Y008468D01*
X011726Y008350D02*
X011807Y008350D01*
X011786Y008231D02*
X011746Y008231D01*
X011746Y008113D02*
X011786Y008113D01*
X011786Y007994D02*
X011746Y007994D01*
X011746Y007876D02*
X011786Y007876D01*
X011786Y007757D02*
X011746Y007757D01*
X011746Y007639D02*
X011786Y007639D01*
X011786Y007520D02*
X011746Y007520D01*
X011702Y007402D02*
X011831Y007402D01*
X011909Y007283D02*
X011624Y007283D01*
X011459Y007165D02*
X012073Y007165D01*
X012459Y007165D02*
X013073Y007165D01*
X012909Y007283D02*
X012624Y007283D01*
X012702Y007402D02*
X012831Y007402D01*
X012786Y007520D02*
X012746Y007520D01*
X012746Y007639D02*
X012786Y007639D01*
X012786Y007757D02*
X012746Y007757D01*
X012746Y007876D02*
X012786Y007876D01*
X012786Y007994D02*
X012746Y007994D01*
X012746Y008113D02*
X012786Y008113D01*
X012786Y008231D02*
X012746Y008231D01*
X012726Y008350D02*
X012807Y008350D01*
X012856Y008468D02*
X012677Y008468D01*
X012563Y008587D02*
X012970Y008587D01*
X012673Y008824D02*
X009856Y008824D01*
X009975Y008705D02*
X016622Y008705D01*
X014786Y007757D02*
X014726Y007757D01*
X014726Y007639D02*
X014786Y007639D01*
X014786Y007520D02*
X014719Y007520D01*
X014679Y007402D02*
X014831Y007402D01*
X014909Y007283D02*
X014596Y007283D01*
X014966Y006928D02*
X009902Y006928D01*
X009395Y006928D02*
X008902Y006928D01*
X009020Y007046D02*
X009276Y007046D01*
X009168Y007165D02*
X009128Y007165D01*
X009128Y007283D02*
X009168Y007283D01*
X009168Y007402D02*
X009128Y007402D01*
X009128Y007520D02*
X009168Y007520D01*
X009255Y007639D02*
X009041Y007639D01*
X008923Y007757D02*
X009373Y007757D01*
X009447Y007876D02*
X008850Y007876D01*
X008968Y007994D02*
X009328Y007994D01*
X009210Y008113D02*
X009087Y008113D01*
X009128Y008231D02*
X009168Y008231D01*
X009168Y008350D02*
X009128Y008350D01*
X009128Y008468D02*
X009168Y008468D01*
X009203Y008587D02*
X009093Y008587D01*
X008975Y008705D02*
X009321Y008705D01*
X009440Y008824D02*
X008856Y008824D01*
X008440Y008824D02*
X007856Y008824D01*
X007975Y008705D02*
X008321Y008705D01*
X008203Y008587D02*
X008093Y008587D01*
X008128Y008468D02*
X008168Y008468D01*
X008168Y008350D02*
X008128Y008350D01*
X008128Y008231D02*
X008168Y008231D01*
X008210Y008113D02*
X008087Y008113D01*
X007210Y008113D02*
X007087Y008113D01*
X007128Y008231D02*
X007168Y008231D01*
X007168Y008350D02*
X007128Y008350D01*
X007128Y008468D02*
X007168Y008468D01*
X007203Y008587D02*
X007093Y008587D01*
X006975Y008705D02*
X007321Y008705D01*
X007440Y008824D02*
X006856Y008824D01*
X007128Y007520D02*
X007168Y007520D01*
X007168Y007402D02*
X007128Y007402D01*
X007128Y007283D02*
X007168Y007283D01*
X007168Y007165D02*
X007128Y007165D01*
X007020Y007046D02*
X007276Y007046D01*
X007395Y006928D02*
X006902Y006928D01*
X007902Y006928D02*
X008395Y006928D01*
X008276Y007046D02*
X008020Y007046D01*
X008128Y007165D02*
X008168Y007165D01*
X008168Y007283D02*
X008128Y007283D01*
X008128Y007402D02*
X008168Y007402D01*
X008168Y007520D02*
X008128Y007520D01*
X013057Y004202D02*
X014891Y004202D01*
X015009Y004084D02*
X013038Y004084D01*
X012962Y003965D02*
X015128Y003965D01*
X015621Y004321D02*
X028557Y004321D01*
X028557Y004439D02*
X027973Y004439D01*
X027999Y004458D02*
X028050Y004509D01*
X028093Y004568D01*
X028126Y004632D01*
X028148Y004701D01*
X028159Y004773D01*
X028159Y005069D01*
X027739Y005069D01*
X027739Y004349D01*
X027807Y004360D01*
X027876Y004383D01*
X027940Y004415D01*
X027999Y004458D01*
X028085Y004558D02*
X028557Y004558D01*
X028557Y004676D02*
X028140Y004676D01*
X028159Y004795D02*
X028557Y004795D01*
X028557Y004913D02*
X028159Y004913D01*
X028159Y005032D02*
X028557Y005032D01*
X028557Y005150D02*
X028159Y005150D01*
X028159Y005149D02*
X028159Y005445D01*
X028148Y005517D01*
X028126Y005585D01*
X028093Y005650D01*
X028050Y005708D01*
X027999Y005760D01*
X027940Y005802D01*
X027876Y005835D01*
X027807Y005857D01*
X027739Y005868D01*
X027739Y005149D01*
X027659Y005149D01*
X027659Y005069D01*
X027239Y005069D01*
X027239Y004773D01*
X027251Y004701D01*
X027273Y004632D01*
X027306Y004568D01*
X027349Y004509D01*
X027400Y004458D01*
X027458Y004415D01*
X027523Y004383D01*
X027592Y004360D01*
X027659Y004349D01*
X027659Y005069D01*
X027739Y005069D01*
X027739Y005149D01*
X028159Y005149D01*
X028159Y005269D02*
X028557Y005269D01*
X028557Y005387D02*
X028159Y005387D01*
X028150Y005506D02*
X028557Y005506D01*
X028557Y005624D02*
X028106Y005624D01*
X028016Y005743D02*
X028557Y005743D01*
X028557Y005861D02*
X027785Y005861D01*
X027739Y005861D02*
X027659Y005861D01*
X027659Y005868D02*
X027592Y005857D01*
X027523Y005835D01*
X027458Y005802D01*
X027400Y005760D01*
X027349Y005708D01*
X027306Y005650D01*
X027273Y005585D01*
X027251Y005517D01*
X027239Y005445D01*
X027239Y005149D01*
X027659Y005149D01*
X027659Y005868D01*
X027614Y005861D02*
X026862Y005861D01*
X027044Y005743D02*
X027383Y005743D01*
X027293Y005624D02*
X027130Y005624D01*
X027179Y005506D02*
X027249Y005506D01*
X027239Y005387D02*
X027179Y005387D01*
X027179Y005269D02*
X027239Y005269D01*
X027239Y005150D02*
X027179Y005150D01*
X027179Y005032D02*
X027239Y005032D01*
X027239Y004913D02*
X027179Y004913D01*
X027179Y004795D02*
X027239Y004795D01*
X027259Y004676D02*
X027164Y004676D01*
X027115Y004558D02*
X027313Y004558D01*
X027426Y004439D02*
X027008Y004439D01*
X027659Y004439D02*
X027739Y004439D01*
X027739Y004558D02*
X027659Y004558D01*
X027659Y004676D02*
X027739Y004676D01*
X027739Y004795D02*
X027659Y004795D01*
X027659Y004913D02*
X027739Y004913D01*
X027739Y005032D02*
X027659Y005032D01*
X027659Y005150D02*
X027739Y005150D01*
X027739Y005269D02*
X027659Y005269D01*
X027659Y005387D02*
X027739Y005387D01*
X027739Y005506D02*
X027659Y005506D01*
X027659Y005624D02*
X027739Y005624D01*
X027739Y005743D02*
X027659Y005743D01*
X026537Y005861D02*
X025862Y005861D01*
X024390Y004439D02*
X015502Y004439D01*
X015384Y004558D02*
X024284Y004558D01*
X022814Y003610D02*
X028557Y003610D01*
X028557Y003728D02*
X016213Y003728D01*
X016095Y003847D02*
X028557Y003847D01*
X028557Y003965D02*
X015976Y003965D01*
X015858Y004084D02*
X028557Y004084D01*
X028557Y004202D02*
X015739Y004202D01*
X015566Y005743D02*
X016907Y005743D01*
X017025Y005861D02*
X015566Y005861D01*
X014569Y009890D02*
X018668Y009890D01*
X011540Y012379D02*
X011281Y012379D01*
X009783Y012379D02*
X007935Y012379D01*
X002075Y004913D02*
X000731Y004913D01*
X000731Y004795D02*
X001956Y004795D01*
X001897Y004676D02*
X000731Y004676D01*
X000731Y004558D02*
X001858Y004558D01*
X001858Y004439D02*
X000731Y004439D01*
X000731Y004321D02*
X001878Y004321D01*
X001927Y004202D02*
X000731Y004202D01*
X000731Y004084D02*
X002028Y004084D01*
X022813Y003017D02*
X028557Y003017D01*
X028557Y003136D02*
X022837Y003136D01*
X022837Y003254D02*
X028557Y003254D01*
X028557Y003373D02*
X022837Y003373D01*
X022837Y003491D02*
X028557Y003491D01*
D21*
X019979Y012664D02*
X017609Y012664D01*
X017585Y012688D01*
X019979Y012664D02*
X020341Y013026D01*
X021408Y013026D01*
X015983Y016121D02*
X012400Y016121D01*
X011849Y015569D01*
X011849Y012971D01*
X011613Y012735D01*
X010077Y012735D01*
X010943Y012066D02*
X011613Y012066D01*
X011770Y012223D01*
X011770Y012499D01*
X011928Y012656D01*
X012164Y012656D01*
X012321Y012814D01*
X012321Y015412D01*
X012558Y015648D01*
X015195Y015648D01*
X015235Y015609D01*
X007754Y014900D02*
X007558Y015097D01*
X007558Y015884D01*
X007243Y016199D01*
X001967Y016199D01*
X001613Y015845D01*
X001613Y008010D01*
X001770Y007853D01*
X003188Y007853D01*
X003266Y008247D02*
X003030Y008483D01*
X003030Y009349D01*
X002392Y009987D01*
X003266Y008247D02*
X003660Y008247D01*
X004329Y007577D01*
X006062Y007577D01*
X006337Y007853D01*
X008384Y007853D01*
X008648Y007589D01*
X008648Y007353D01*
X007243Y006121D02*
X002660Y006121D01*
X002392Y005853D01*
X005747Y008050D02*
X005747Y011317D01*
X005314Y011751D01*
X004526Y011751D01*
X003975Y012302D01*
X003975Y013247D01*
X003699Y013522D01*
X002006Y013522D01*
X001849Y013680D01*
X001849Y014625D01*
X002164Y014861D01*
X006928Y014861D01*
X007203Y014585D01*
X007203Y014113D01*
X007321Y013995D01*
X004290Y013522D02*
X004290Y012380D01*
X004605Y012066D01*
X007518Y012066D01*
X007558Y012105D01*
X004290Y013522D02*
X003691Y014121D01*
X002392Y014121D01*
D22*
X016471Y005003D02*
X017471Y006003D01*
X019471Y006003D01*
X019971Y006503D01*
X020062Y006550D01*
D23*
X016471Y005003D03*
M02*
