G75*
%MOIN*%
%OFA0B0*%
%FSLAX24Y24*%
%IPPOS*%
%LPD*%
%AMOC8*
5,1,8,0,0,1.08239X$1,22.5*
%
%ADD10C,0.0060*%
%ADD11C,0.0030*%
%ADD12C,0.0000*%
%ADD13C,0.0040*%
%ADD14C,0.0050*%
%ADD15C,0.0080*%
%ADD16C,0.0250*%
%ADD17R,0.0660X0.0380*%
%ADD18C,0.0100*%
%ADD19R,0.0059X0.0118*%
%ADD20R,0.0118X0.0118*%
%ADD21C,0.0020*%
D10*
X006398Y006853D02*
X006898Y006853D01*
X007148Y007103D01*
X007398Y006853D01*
X007898Y006853D01*
X008148Y007103D01*
X008398Y006853D01*
X008898Y006853D01*
X009148Y007103D01*
X009398Y006853D01*
X009898Y006853D01*
X010148Y007103D01*
X010148Y008603D01*
X009898Y008853D01*
X009398Y008853D01*
X009148Y008603D01*
X008898Y008853D01*
X008398Y008853D01*
X008148Y008603D01*
X007898Y008853D01*
X007398Y008853D01*
X007148Y008603D01*
X006898Y008853D01*
X006398Y008853D01*
X006148Y008603D01*
X006148Y007103D01*
X006398Y006853D01*
X010766Y007654D02*
X010766Y008154D01*
X011016Y008404D01*
X011516Y008404D01*
X011766Y008154D01*
X012016Y008404D01*
X012516Y008404D01*
X012766Y008154D01*
X013016Y008404D01*
X013516Y008404D01*
X013766Y008154D01*
X014016Y008404D01*
X014516Y008404D01*
X014766Y008154D01*
X015016Y008404D01*
X015516Y008404D01*
X015766Y008154D01*
X016016Y008404D01*
X016516Y008404D01*
X016766Y008154D01*
X016766Y007654D01*
X016516Y007404D01*
X016016Y007404D01*
X015766Y007654D01*
X015516Y007404D01*
X015016Y007404D01*
X014766Y007654D01*
X014516Y007404D01*
X014016Y007404D01*
X013766Y007654D01*
X013516Y007404D01*
X013016Y007404D01*
X012766Y007654D01*
X012516Y007404D01*
X012016Y007404D01*
X011766Y007654D01*
X011516Y007404D01*
X011016Y007404D01*
X010766Y007654D01*
X014147Y005758D02*
X014147Y005531D01*
X014204Y005474D01*
X014317Y005474D01*
X014374Y005531D01*
X014516Y005531D02*
X014572Y005474D01*
X014686Y005474D01*
X014742Y005531D01*
X014742Y005587D01*
X014686Y005644D01*
X014629Y005644D01*
X014686Y005644D02*
X014742Y005701D01*
X014742Y005758D01*
X014686Y005814D01*
X014572Y005814D01*
X014516Y005758D01*
X014374Y005758D02*
X014317Y005814D01*
X014204Y005814D01*
X014147Y005758D01*
X016199Y005442D02*
X016199Y005222D01*
X016519Y005222D01*
X016199Y006122D02*
X016199Y006342D01*
X016519Y006342D01*
X019762Y006350D02*
X019762Y006250D01*
X019862Y006250D01*
X020262Y006250D02*
X020362Y006250D01*
X020362Y006350D01*
X020362Y006750D02*
X020362Y006850D01*
X020262Y006850D01*
X019862Y006850D02*
X019762Y006850D01*
X019762Y006750D01*
X020773Y006758D02*
X020773Y006858D01*
X020873Y006858D01*
X021273Y006858D02*
X021373Y006858D01*
X021373Y006758D01*
X021373Y006358D02*
X021373Y006258D01*
X021273Y006258D01*
X020873Y006258D02*
X020773Y006258D01*
X020773Y006358D01*
X024199Y005359D02*
X024199Y004859D01*
X024449Y004609D01*
X024949Y004609D01*
X025199Y004859D01*
X025449Y004609D01*
X025949Y004609D01*
X026199Y004859D01*
X026449Y004609D01*
X026949Y004609D01*
X027199Y004859D01*
X027449Y004609D01*
X027949Y004609D01*
X028199Y004859D01*
X028199Y005359D01*
X027949Y005609D01*
X027449Y005609D01*
X027199Y005359D01*
X026949Y005609D01*
X026449Y005609D01*
X026199Y005359D01*
X025949Y005609D01*
X025449Y005609D01*
X025199Y005359D01*
X024949Y005609D01*
X024449Y005609D01*
X024199Y005359D01*
X024066Y015359D02*
X023716Y015359D01*
X023716Y015459D01*
X023416Y015459D01*
X023416Y015659D01*
X023316Y015459D02*
X023316Y016859D01*
X023766Y016859D01*
X026216Y016859D01*
X026216Y015459D01*
X026116Y015459D02*
X026116Y015659D01*
X026116Y015459D02*
X025816Y015459D01*
X025816Y015359D01*
X025516Y015359D01*
X025516Y015459D01*
X025066Y015459D01*
X025066Y015559D01*
X024466Y015559D01*
X024466Y015459D01*
X024066Y015459D01*
X024066Y015359D01*
X023416Y016259D02*
X023416Y016759D01*
X024516Y016759D01*
X024516Y016359D01*
X025016Y016359D01*
X025016Y016759D01*
X024516Y016759D01*
X024266Y016959D02*
X023766Y016959D01*
X023766Y016859D01*
X024266Y016959D02*
X024266Y017109D01*
X025266Y017109D01*
X025266Y016959D01*
X024266Y016959D01*
X025016Y016759D02*
X026116Y016759D01*
X026116Y016259D01*
X025766Y016859D02*
X025766Y016959D01*
X025266Y016959D01*
X006862Y017005D02*
X006862Y016684D01*
X006542Y016684D01*
X006435Y016791D01*
X006542Y016898D01*
X006862Y016898D01*
X006862Y017005D02*
X006755Y017111D01*
X006542Y017111D01*
X006218Y017111D02*
X006111Y017111D01*
X005898Y016898D01*
X005898Y017111D02*
X005898Y016684D01*
X005680Y016684D02*
X005360Y016684D01*
X005253Y016791D01*
X005253Y017005D01*
X005360Y017111D01*
X005680Y017111D01*
X005036Y017111D02*
X004715Y017111D01*
X004609Y017005D01*
X004609Y016791D01*
X004715Y016684D01*
X005036Y016684D01*
X004391Y016684D02*
X004391Y017111D01*
X004178Y017325D01*
X003964Y017111D01*
X003964Y016684D01*
X003964Y017005D02*
X004391Y017005D01*
D11*
X004444Y016411D02*
X004321Y016411D01*
X004259Y016350D01*
X004259Y016226D01*
X004321Y016164D01*
X004444Y016164D01*
X004506Y016288D02*
X004259Y016288D01*
X004137Y016411D02*
X004076Y016411D01*
X003952Y016288D01*
X003952Y016411D02*
X003952Y016164D01*
X003964Y015891D02*
X003964Y015706D01*
X004026Y015644D01*
X004087Y015706D01*
X004149Y015644D01*
X004211Y015706D01*
X004211Y015891D01*
X004332Y015891D02*
X004332Y015706D01*
X004394Y015644D01*
X004456Y015706D01*
X004517Y015644D01*
X004579Y015706D01*
X004579Y015891D01*
X004701Y015891D02*
X004701Y015706D01*
X004762Y015644D01*
X004824Y015706D01*
X004886Y015644D01*
X004947Y015706D01*
X004947Y015891D01*
X005069Y015706D02*
X005131Y015706D01*
X005131Y015644D01*
X005069Y015644D01*
X005069Y015706D01*
X005253Y015706D02*
X005315Y015644D01*
X005500Y015644D01*
X005500Y015583D02*
X005500Y015891D01*
X005315Y015891D01*
X005253Y015829D01*
X005253Y015706D01*
X005377Y015521D02*
X005438Y015521D01*
X005500Y015583D01*
X005621Y015644D02*
X005621Y015891D01*
X005621Y015768D02*
X005745Y015891D01*
X005807Y015891D01*
X005928Y015829D02*
X005928Y015706D01*
X005990Y015644D01*
X006113Y015644D01*
X006175Y015706D01*
X006175Y015829D01*
X006113Y015891D01*
X005990Y015891D01*
X005928Y015829D01*
X006297Y015829D02*
X006297Y015706D01*
X006358Y015644D01*
X006544Y015644D01*
X006544Y016015D01*
X006544Y015891D02*
X006358Y015891D01*
X006297Y015829D01*
X006665Y015706D02*
X006727Y015768D01*
X006912Y015768D01*
X006912Y015829D02*
X006912Y015644D01*
X006727Y015644D01*
X006665Y015706D01*
X006727Y015891D02*
X006850Y015891D01*
X006912Y015829D01*
X007033Y015891D02*
X007218Y015891D01*
X007280Y015829D01*
X007280Y015644D01*
X007402Y015644D02*
X007587Y015644D01*
X007648Y015706D01*
X007587Y015768D01*
X007463Y015768D01*
X007402Y015829D01*
X007463Y015891D01*
X007648Y015891D01*
X007770Y015891D02*
X007955Y015891D01*
X008017Y015829D01*
X008017Y015706D01*
X007955Y015644D01*
X007770Y015644D01*
X007770Y015521D02*
X007770Y015891D01*
X008138Y015706D02*
X008200Y015768D01*
X008385Y015768D01*
X008385Y015829D02*
X008385Y015644D01*
X008200Y015644D01*
X008138Y015706D01*
X008200Y015891D02*
X008323Y015891D01*
X008385Y015829D01*
X008507Y015768D02*
X008630Y015891D01*
X008692Y015891D01*
X008875Y015891D02*
X008999Y015891D01*
X009060Y015829D01*
X009060Y015644D01*
X008875Y015644D01*
X008813Y015706D01*
X008875Y015768D01*
X009060Y015768D01*
X009182Y015829D02*
X009243Y015891D01*
X009429Y015891D01*
X009550Y015891D02*
X009612Y015891D01*
X009612Y015644D01*
X009550Y015644D02*
X009674Y015644D01*
X009796Y015644D02*
X009981Y015644D01*
X010042Y015706D01*
X009981Y015768D01*
X009857Y015768D01*
X009796Y015829D01*
X009857Y015891D01*
X010042Y015891D01*
X010164Y015706D02*
X010226Y015706D01*
X010226Y015644D01*
X010164Y015644D01*
X010164Y015706D01*
X010348Y015706D02*
X010348Y015829D01*
X010410Y015891D01*
X010595Y015891D01*
X010716Y015829D02*
X010716Y015706D01*
X010778Y015644D01*
X010902Y015644D01*
X010963Y015706D01*
X010963Y015829D01*
X010902Y015891D01*
X010778Y015891D01*
X010716Y015829D01*
X010595Y015644D02*
X010410Y015644D01*
X010348Y015706D01*
X011085Y015644D02*
X011085Y015891D01*
X011146Y015891D01*
X011208Y015829D01*
X011270Y015891D01*
X011332Y015829D01*
X011332Y015644D01*
X011208Y015644D02*
X011208Y015829D01*
X009612Y016015D02*
X009612Y016076D01*
X009429Y016015D02*
X009429Y015644D01*
X009243Y015644D01*
X009182Y015706D01*
X009182Y015829D01*
X008507Y015891D02*
X008507Y015644D01*
X007033Y015644D02*
X007033Y015891D01*
X005611Y016164D02*
X005611Y016411D01*
X005487Y016535D01*
X005364Y016411D01*
X005364Y016164D01*
X005364Y016350D02*
X005611Y016350D01*
X004874Y016411D02*
X004751Y016164D01*
X004627Y016411D01*
X004506Y016350D02*
X004506Y016288D01*
X004506Y016350D02*
X004444Y016411D01*
X020262Y007683D02*
X020262Y007313D01*
X020262Y007436D02*
X020447Y007436D01*
X020508Y007498D01*
X020508Y007621D01*
X020447Y007683D01*
X020262Y007683D01*
X020630Y007683D02*
X020630Y007313D01*
X020753Y007436D01*
X020877Y007313D01*
X020877Y007683D01*
X020998Y007683D02*
X021183Y007683D01*
X021245Y007621D01*
X021245Y007498D01*
X021183Y007436D01*
X020998Y007436D01*
X020998Y007313D02*
X020998Y007683D01*
X021122Y007436D02*
X021245Y007313D01*
X024101Y002071D02*
X024039Y002010D01*
X024039Y001763D01*
X024101Y001701D01*
X024225Y001701D01*
X024286Y001763D01*
X024408Y001701D02*
X024655Y001948D01*
X024655Y002010D01*
X024593Y002071D01*
X024470Y002071D01*
X024408Y002010D01*
X024286Y002010D02*
X024225Y002071D01*
X024101Y002071D01*
X024408Y001701D02*
X024655Y001701D01*
X015839Y001759D02*
X015592Y001759D01*
X015716Y001759D02*
X015716Y002129D01*
X015592Y002006D01*
X015471Y002068D02*
X015409Y002129D01*
X015286Y002129D01*
X015224Y002068D01*
X015224Y001821D01*
X015286Y001759D01*
X015409Y001759D01*
X015471Y001821D01*
X027062Y014293D02*
X027062Y014417D01*
X027062Y014355D02*
X027432Y014355D01*
X027432Y014293D02*
X027432Y014417D01*
X027432Y014539D02*
X027062Y014539D01*
X027432Y014786D01*
X027062Y014786D01*
X027062Y014907D02*
X027062Y015030D01*
X027062Y014969D02*
X027432Y014969D01*
X027432Y015030D02*
X027432Y014907D01*
X027062Y015153D02*
X027062Y015399D01*
X027062Y015276D02*
X027432Y015276D01*
D12*
X028817Y001003D02*
X000471Y001003D01*
X000471Y017538D01*
X028817Y017538D01*
X028817Y001003D01*
X025167Y007042D02*
X025169Y007092D01*
X025175Y007142D01*
X025185Y007192D01*
X025198Y007240D01*
X025215Y007288D01*
X025236Y007334D01*
X025260Y007378D01*
X025288Y007420D01*
X025319Y007460D01*
X025353Y007497D01*
X025390Y007532D01*
X025429Y007563D01*
X025470Y007592D01*
X025514Y007617D01*
X025560Y007639D01*
X025607Y007657D01*
X025655Y007671D01*
X025704Y007682D01*
X025754Y007689D01*
X025804Y007692D01*
X025855Y007691D01*
X025905Y007686D01*
X025955Y007677D01*
X026003Y007665D01*
X026051Y007648D01*
X026097Y007628D01*
X026142Y007605D01*
X026185Y007578D01*
X026225Y007548D01*
X026263Y007515D01*
X026298Y007479D01*
X026331Y007440D01*
X026360Y007399D01*
X026386Y007356D01*
X026409Y007311D01*
X026428Y007264D01*
X026443Y007216D01*
X026455Y007167D01*
X026463Y007117D01*
X026467Y007067D01*
X026467Y007017D01*
X026463Y006967D01*
X026455Y006917D01*
X026443Y006868D01*
X026428Y006820D01*
X026409Y006773D01*
X026386Y006728D01*
X026360Y006685D01*
X026331Y006644D01*
X026298Y006605D01*
X026263Y006569D01*
X026225Y006536D01*
X026185Y006506D01*
X026142Y006479D01*
X026097Y006456D01*
X026051Y006436D01*
X026003Y006419D01*
X025955Y006407D01*
X025905Y006398D01*
X025855Y006393D01*
X025804Y006392D01*
X025754Y006395D01*
X025704Y006402D01*
X025655Y006413D01*
X025607Y006427D01*
X025560Y006445D01*
X025514Y006467D01*
X025470Y006492D01*
X025429Y006521D01*
X025390Y006552D01*
X025353Y006587D01*
X025319Y006624D01*
X025288Y006664D01*
X025260Y006706D01*
X025236Y006750D01*
X025215Y006796D01*
X025198Y006844D01*
X025185Y006892D01*
X025175Y006942D01*
X025169Y006992D01*
X025167Y007042D01*
X025167Y011530D02*
X025169Y011580D01*
X025175Y011630D01*
X025185Y011680D01*
X025198Y011728D01*
X025215Y011776D01*
X025236Y011822D01*
X025260Y011866D01*
X025288Y011908D01*
X025319Y011948D01*
X025353Y011985D01*
X025390Y012020D01*
X025429Y012051D01*
X025470Y012080D01*
X025514Y012105D01*
X025560Y012127D01*
X025607Y012145D01*
X025655Y012159D01*
X025704Y012170D01*
X025754Y012177D01*
X025804Y012180D01*
X025855Y012179D01*
X025905Y012174D01*
X025955Y012165D01*
X026003Y012153D01*
X026051Y012136D01*
X026097Y012116D01*
X026142Y012093D01*
X026185Y012066D01*
X026225Y012036D01*
X026263Y012003D01*
X026298Y011967D01*
X026331Y011928D01*
X026360Y011887D01*
X026386Y011844D01*
X026409Y011799D01*
X026428Y011752D01*
X026443Y011704D01*
X026455Y011655D01*
X026463Y011605D01*
X026467Y011555D01*
X026467Y011505D01*
X026463Y011455D01*
X026455Y011405D01*
X026443Y011356D01*
X026428Y011308D01*
X026409Y011261D01*
X026386Y011216D01*
X026360Y011173D01*
X026331Y011132D01*
X026298Y011093D01*
X026263Y011057D01*
X026225Y011024D01*
X026185Y010994D01*
X026142Y010967D01*
X026097Y010944D01*
X026051Y010924D01*
X026003Y010907D01*
X025955Y010895D01*
X025905Y010886D01*
X025855Y010881D01*
X025804Y010880D01*
X025754Y010883D01*
X025704Y010890D01*
X025655Y010901D01*
X025607Y010915D01*
X025560Y010933D01*
X025514Y010955D01*
X025470Y010980D01*
X025429Y011009D01*
X025390Y011040D01*
X025353Y011075D01*
X025319Y011112D01*
X025288Y011152D01*
X025260Y011194D01*
X025236Y011238D01*
X025215Y011284D01*
X025198Y011332D01*
X025185Y011380D01*
X025175Y011430D01*
X025169Y011480D01*
X025167Y011530D01*
D13*
X026279Y012771D02*
X026509Y012771D01*
X026585Y012848D01*
X026585Y013155D01*
X026509Y013231D01*
X026279Y013231D01*
X026279Y012771D01*
X026739Y012771D02*
X027046Y012771D01*
X026892Y012771D02*
X026892Y013231D01*
X026739Y013078D01*
X023597Y013796D02*
X023290Y013796D01*
X023521Y014026D01*
X023521Y013566D01*
X023137Y013566D02*
X022830Y013566D01*
X022984Y013566D02*
X022984Y014026D01*
X022830Y013873D01*
X022677Y013949D02*
X022600Y014026D01*
X022446Y014026D01*
X022370Y013949D01*
X022370Y013643D01*
X022446Y013566D01*
X022600Y013566D01*
X022677Y013643D01*
X022693Y014614D02*
X022386Y014614D01*
X022310Y014690D01*
X022310Y014844D01*
X022386Y014920D01*
X022310Y015074D02*
X022310Y015381D01*
X022386Y015381D01*
X022693Y015074D01*
X022770Y015074D01*
X022693Y014920D02*
X022770Y014844D01*
X022770Y014690D01*
X022693Y014614D01*
X021846Y014793D02*
X021386Y014793D01*
X021386Y015024D01*
X021463Y015100D01*
X021616Y015100D01*
X021693Y015024D01*
X021693Y014793D01*
X021693Y014947D02*
X021846Y015100D01*
X021616Y015254D02*
X021616Y015561D01*
X021386Y015484D02*
X021616Y015254D01*
X021846Y015484D02*
X021386Y015484D01*
X020573Y013703D02*
X020573Y013243D01*
X020420Y013243D02*
X020727Y013243D01*
X020420Y013550D02*
X020573Y013703D01*
X020266Y013627D02*
X020266Y013320D01*
X020190Y013243D01*
X020036Y013243D01*
X019960Y013320D01*
X019960Y013627D01*
X020036Y013703D01*
X020190Y013703D01*
X020266Y013627D01*
X020113Y013396D02*
X020266Y013243D01*
X018052Y014368D02*
X018052Y014828D01*
X017822Y014598D01*
X018129Y014598D01*
X017668Y014751D02*
X017592Y014828D01*
X017438Y014828D01*
X017361Y014751D01*
X017361Y014444D01*
X017438Y014368D01*
X017592Y014368D01*
X017668Y014444D01*
X018124Y011884D02*
X018047Y011807D01*
X018047Y011500D01*
X018124Y011423D01*
X018277Y011423D01*
X018354Y011500D01*
X018507Y011500D02*
X018584Y011423D01*
X018738Y011423D01*
X018814Y011500D01*
X018814Y011577D01*
X018738Y011653D01*
X018507Y011653D01*
X018507Y011500D01*
X018507Y011653D02*
X018661Y011807D01*
X018814Y011884D01*
X018354Y011807D02*
X018277Y011884D01*
X018124Y011884D01*
X018040Y009834D02*
X017810Y009834D01*
X017810Y009373D01*
X017810Y009527D02*
X018040Y009527D01*
X018117Y009603D01*
X018117Y009757D01*
X018040Y009834D01*
X018270Y009757D02*
X018347Y009834D01*
X018500Y009834D01*
X018577Y009757D01*
X018577Y009680D01*
X018270Y009373D01*
X018577Y009373D01*
X018117Y009373D02*
X017963Y009527D01*
X019253Y009144D02*
X019253Y008684D01*
X019253Y008837D02*
X019483Y008837D01*
X019560Y008914D01*
X019560Y009068D01*
X019483Y009144D01*
X019253Y009144D01*
X019406Y008837D02*
X019560Y008684D01*
X019713Y008684D02*
X020020Y008684D01*
X019867Y008684D02*
X019867Y009144D01*
X019713Y008991D01*
X020174Y008991D02*
X020327Y009144D01*
X020327Y008684D01*
X020174Y008684D02*
X020481Y008684D01*
X017255Y008073D02*
X017255Y007920D01*
X017179Y007843D01*
X017179Y007690D02*
X017255Y007613D01*
X017255Y007459D01*
X017179Y007383D01*
X016872Y007383D01*
X016795Y007459D01*
X016795Y007613D01*
X016872Y007690D01*
X016872Y007843D02*
X016795Y007920D01*
X016795Y008073D01*
X016872Y008150D01*
X016948Y008150D01*
X017025Y008073D01*
X017102Y008150D01*
X017179Y008150D01*
X017255Y008073D01*
X017025Y008073D02*
X017025Y007996D01*
X016795Y007229D02*
X016795Y007076D01*
X016795Y007152D02*
X017255Y007152D01*
X017255Y007076D02*
X017255Y007229D01*
X017218Y006127D02*
X017448Y006127D01*
X017525Y006050D01*
X017525Y005743D01*
X017448Y005666D01*
X017218Y005666D01*
X017218Y006127D01*
X017678Y006050D02*
X017755Y006127D01*
X017908Y006127D01*
X017985Y006050D01*
X017985Y005973D01*
X017678Y005666D01*
X017985Y005666D01*
X018394Y005610D02*
X018394Y005150D01*
X018701Y005150D01*
X018855Y005150D02*
X019162Y005150D01*
X019008Y005150D02*
X019008Y005610D01*
X018855Y005457D01*
X017829Y004635D02*
X017752Y004635D01*
X017445Y004942D01*
X017369Y004942D01*
X017369Y004635D01*
X017369Y004328D02*
X017829Y004328D01*
X017829Y004175D02*
X017829Y004481D01*
X017522Y004175D02*
X017369Y004328D01*
X017445Y004021D02*
X017369Y003944D01*
X017369Y003714D01*
X017829Y003714D01*
X017676Y003714D02*
X017676Y003944D01*
X017599Y004021D01*
X017445Y004021D01*
X017676Y003868D02*
X017829Y004021D01*
X015269Y004386D02*
X015269Y002496D01*
X014600Y001827D01*
X014364Y001827D01*
X013616Y001827D02*
X013380Y001827D01*
X012710Y002496D01*
X012710Y004386D01*
X013616Y004386D01*
X014364Y004386D02*
X015269Y004386D01*
X013616Y004268D02*
X013552Y004246D01*
X013489Y004219D01*
X013427Y004189D01*
X013368Y004156D01*
X013310Y004120D01*
X013254Y004080D01*
X013201Y004037D01*
X013150Y003992D01*
X013102Y003944D01*
X013057Y003893D01*
X013014Y003839D01*
X012975Y003783D01*
X012938Y003726D01*
X012905Y003666D01*
X012876Y003604D01*
X012850Y003541D01*
X012827Y003477D01*
X012808Y003411D01*
X012793Y003344D01*
X012782Y003277D01*
X012774Y003209D01*
X012770Y003141D01*
X012770Y003073D01*
X012774Y003005D01*
X012782Y002937D01*
X012793Y002870D01*
X012808Y002803D01*
X012827Y002737D01*
X012850Y002673D01*
X012876Y002610D01*
X012905Y002548D01*
X012938Y002488D01*
X012975Y002431D01*
X013014Y002375D01*
X013057Y002321D01*
X013102Y002270D01*
X013150Y002222D01*
X013201Y002177D01*
X013254Y002134D01*
X013310Y002094D01*
X013368Y002058D01*
X013427Y002025D01*
X013489Y001995D01*
X013552Y001968D01*
X013616Y001946D01*
X014364Y001946D02*
X014428Y001968D01*
X014491Y001995D01*
X014553Y002025D01*
X014612Y002058D01*
X014670Y002094D01*
X014726Y002134D01*
X014779Y002177D01*
X014830Y002222D01*
X014878Y002270D01*
X014923Y002321D01*
X014966Y002375D01*
X015005Y002431D01*
X015042Y002488D01*
X015075Y002548D01*
X015104Y002610D01*
X015130Y002673D01*
X015153Y002737D01*
X015172Y002803D01*
X015187Y002870D01*
X015198Y002937D01*
X015206Y003005D01*
X015210Y003073D01*
X015210Y003141D01*
X015206Y003209D01*
X015198Y003277D01*
X015187Y003344D01*
X015172Y003411D01*
X015153Y003477D01*
X015130Y003541D01*
X015104Y003604D01*
X015075Y003666D01*
X015042Y003726D01*
X015005Y003783D01*
X014966Y003839D01*
X014923Y003893D01*
X014878Y003944D01*
X014830Y003992D01*
X014779Y004037D01*
X014726Y004080D01*
X014670Y004120D01*
X014612Y004156D01*
X014553Y004189D01*
X014491Y004219D01*
X014428Y004246D01*
X014364Y004268D01*
X005911Y004053D02*
X005450Y004053D01*
X005681Y003823D01*
X005681Y004130D01*
X005834Y003670D02*
X005911Y003593D01*
X005911Y003439D01*
X005834Y003363D01*
X005527Y003363D01*
X005450Y003439D01*
X005450Y003593D01*
X005527Y003670D01*
X005450Y003209D02*
X005450Y003056D01*
X005450Y003132D02*
X005911Y003132D01*
X005911Y003056D02*
X005911Y003209D01*
X004511Y002109D02*
X004511Y001649D01*
X004664Y001649D02*
X004357Y001649D01*
X004127Y001725D02*
X004127Y002109D01*
X004050Y002109D02*
X004204Y002109D01*
X004357Y001955D02*
X004511Y002109D01*
X004127Y001725D02*
X004050Y001649D01*
X003974Y001649D01*
X003897Y001725D01*
X001703Y001672D02*
X001243Y001672D01*
X001396Y001519D01*
X001703Y001519D02*
X001703Y001826D01*
X011399Y015032D02*
X011552Y015032D01*
X011629Y015109D01*
X011782Y015109D02*
X011859Y015032D01*
X012012Y015032D01*
X012089Y015109D01*
X012089Y015262D01*
X012012Y015339D01*
X011936Y015339D01*
X011782Y015262D01*
X011782Y015492D01*
X012089Y015492D01*
X011629Y015416D02*
X011552Y015492D01*
X011399Y015492D01*
X011322Y015416D01*
X011322Y015109D01*
X011399Y015032D01*
X001703Y016487D02*
X001703Y016794D01*
X001703Y016641D02*
X001243Y016641D01*
X001396Y016487D01*
X001319Y016947D02*
X001243Y017024D01*
X001243Y017178D01*
X001319Y017254D01*
X001396Y017254D01*
X001703Y016947D01*
X001703Y017254D01*
X022995Y006081D02*
X023149Y006081D01*
X023072Y006081D02*
X023072Y005698D01*
X022995Y005621D01*
X022919Y005621D01*
X022842Y005698D01*
X023302Y005621D02*
X023609Y005928D01*
X023609Y006005D01*
X023532Y006081D01*
X023379Y006081D01*
X023302Y006005D01*
X023302Y005621D02*
X023609Y005621D01*
X025592Y004186D02*
X027482Y004186D01*
X027482Y003280D01*
X027482Y002532D02*
X027482Y001627D01*
X025592Y001627D01*
X024923Y002296D01*
X024923Y002532D01*
X024923Y003280D02*
X024923Y003517D01*
X025592Y004186D01*
X025041Y002532D02*
X025063Y002468D01*
X025090Y002405D01*
X025120Y002343D01*
X025153Y002284D01*
X025189Y002226D01*
X025229Y002170D01*
X025272Y002117D01*
X025317Y002066D01*
X025365Y002018D01*
X025416Y001973D01*
X025470Y001930D01*
X025526Y001891D01*
X025583Y001854D01*
X025643Y001821D01*
X025705Y001792D01*
X025768Y001766D01*
X025832Y001743D01*
X025898Y001724D01*
X025965Y001709D01*
X026032Y001698D01*
X026100Y001690D01*
X026168Y001686D01*
X026236Y001686D01*
X026304Y001690D01*
X026372Y001698D01*
X026439Y001709D01*
X026506Y001724D01*
X026572Y001743D01*
X026636Y001766D01*
X026699Y001792D01*
X026761Y001821D01*
X026821Y001854D01*
X026878Y001891D01*
X026934Y001930D01*
X026988Y001973D01*
X027039Y002018D01*
X027087Y002066D01*
X027132Y002117D01*
X027175Y002170D01*
X027215Y002226D01*
X027251Y002284D01*
X027284Y002343D01*
X027314Y002405D01*
X027341Y002468D01*
X027363Y002532D01*
X027363Y003280D02*
X027341Y003344D01*
X027314Y003407D01*
X027284Y003469D01*
X027251Y003528D01*
X027215Y003586D01*
X027175Y003642D01*
X027132Y003695D01*
X027087Y003746D01*
X027039Y003794D01*
X026988Y003839D01*
X026934Y003882D01*
X026878Y003921D01*
X026821Y003958D01*
X026761Y003991D01*
X026699Y004020D01*
X026636Y004046D01*
X026572Y004069D01*
X026506Y004088D01*
X026439Y004103D01*
X026372Y004114D01*
X026304Y004122D01*
X026236Y004126D01*
X026168Y004126D01*
X026100Y004122D01*
X026032Y004114D01*
X025965Y004103D01*
X025898Y004088D01*
X025832Y004069D01*
X025768Y004046D01*
X025705Y004020D01*
X025643Y003991D01*
X025583Y003958D01*
X025526Y003921D01*
X025470Y003882D01*
X025416Y003839D01*
X025365Y003794D01*
X025317Y003746D01*
X025272Y003695D01*
X025229Y003642D01*
X025189Y003586D01*
X025153Y003528D01*
X025120Y003469D01*
X025090Y003407D01*
X025063Y003344D01*
X025041Y003280D01*
X026425Y015874D02*
X026425Y016335D01*
X026656Y016335D01*
X026732Y016258D01*
X026732Y016105D01*
X026656Y016028D01*
X026425Y016028D01*
X026579Y016028D02*
X026732Y015874D01*
X026886Y015951D02*
X026962Y015874D01*
X027116Y015874D01*
X027193Y015951D01*
X027193Y016028D01*
X027116Y016105D01*
X027039Y016105D01*
X027116Y016105D02*
X027193Y016181D01*
X027193Y016258D01*
X027116Y016335D01*
X026962Y016335D01*
X026886Y016258D01*
D14*
X028317Y012321D02*
X021479Y012321D01*
X021479Y006251D01*
X028337Y006251D01*
X028317Y006251D02*
X028317Y012321D01*
X028550Y005334D02*
X028324Y005109D01*
X028625Y005109D01*
X028550Y004884D02*
X028550Y005334D01*
X025091Y004214D02*
X024791Y004214D01*
X025016Y004439D01*
X025016Y003989D01*
X024556Y004064D02*
X024556Y004439D01*
X024481Y004439D02*
X024631Y004439D01*
X024556Y004064D02*
X024481Y003989D01*
X024406Y003989D01*
X024331Y004064D01*
X024075Y004884D02*
X023774Y004884D01*
X023924Y004884D02*
X023924Y005334D01*
X023774Y005184D01*
X016381Y008579D02*
X016081Y008579D01*
X016231Y008579D02*
X016231Y009029D01*
X016081Y008879D01*
X012159Y008913D02*
X012084Y008838D01*
X011934Y008838D01*
X011858Y008913D01*
X012009Y009063D02*
X012084Y009063D01*
X012159Y008988D01*
X012159Y008913D01*
X012084Y009063D02*
X012159Y009138D01*
X012159Y009213D01*
X012084Y009289D01*
X011934Y009289D01*
X011858Y009213D01*
X011698Y009289D02*
X011548Y009289D01*
X011623Y009289D02*
X011623Y008913D01*
X011548Y008838D01*
X011473Y008838D01*
X011398Y008913D01*
X009973Y009103D02*
X009898Y009028D01*
X009748Y009028D01*
X009673Y009103D01*
X009673Y009178D01*
X009748Y009253D01*
X009898Y009253D01*
X009973Y009178D01*
X009973Y009103D01*
X009898Y009253D02*
X009973Y009328D01*
X009973Y009403D01*
X009898Y009478D01*
X009748Y009478D01*
X009673Y009403D01*
X009673Y009328D01*
X009748Y009253D01*
X011231Y007154D02*
X011381Y007229D01*
X011231Y007154D02*
X011081Y007004D01*
X011306Y007004D01*
X011381Y006929D01*
X011381Y006854D01*
X011306Y006779D01*
X011156Y006779D01*
X011081Y006854D01*
X011081Y007004D01*
X009650Y006604D02*
X009350Y006604D01*
X009350Y006379D01*
X009500Y006454D01*
X009575Y006454D01*
X009650Y006379D01*
X009650Y006229D01*
X009575Y006154D01*
X009425Y006154D01*
X009350Y006229D01*
X009115Y006229D02*
X009115Y006604D01*
X009040Y006604D02*
X009190Y006604D01*
X009115Y006229D02*
X009040Y006154D01*
X008965Y006154D01*
X008890Y006229D01*
X006773Y006228D02*
X006473Y006228D01*
X006623Y006228D02*
X006623Y006678D01*
X006473Y006528D01*
X003770Y001184D02*
X001014Y001184D01*
X001014Y017451D01*
X003770Y017451D01*
X003770Y001184D01*
D15*
X010571Y001640D02*
X010571Y005651D01*
X014811Y009109D02*
X014951Y009109D01*
X014881Y009109D02*
X014881Y009529D01*
X014811Y009529D02*
X014951Y009529D01*
X015118Y009459D02*
X015118Y009179D01*
X015188Y009109D01*
X015328Y009109D01*
X015398Y009179D01*
X015578Y009109D02*
X015859Y009109D01*
X015719Y009109D02*
X015719Y009529D01*
X015578Y009389D01*
X015398Y009459D02*
X015328Y009529D01*
X015188Y009529D01*
X015118Y009459D01*
X015311Y009900D02*
X015309Y009938D01*
X015303Y009975D01*
X015294Y010012D01*
X015281Y010048D01*
X015264Y010082D01*
X015244Y010114D01*
X015221Y010144D01*
X015194Y010172D01*
X015166Y010197D01*
X015134Y010218D01*
X015101Y010237D01*
X015066Y010252D01*
X015030Y010263D01*
X014993Y010271D01*
X014955Y010275D01*
X014917Y010275D01*
X014879Y010271D01*
X014842Y010263D01*
X014806Y010252D01*
X014771Y010237D01*
X014738Y010218D01*
X014706Y010197D01*
X014678Y010172D01*
X014651Y010144D01*
X014628Y010114D01*
X014608Y010082D01*
X014591Y010048D01*
X014578Y010012D01*
X014569Y009975D01*
X014563Y009938D01*
X014561Y009900D01*
X013236Y009900D01*
X013236Y016900D01*
X016636Y016900D01*
X016636Y009900D01*
X015311Y009900D01*
X016736Y009600D02*
X017136Y009600D01*
X016936Y009900D01*
X016736Y009600D01*
X016761Y009638D02*
X017111Y009638D01*
X017058Y009716D02*
X016813Y009716D01*
X016865Y009795D02*
X017006Y009795D01*
X016954Y009873D02*
X016918Y009873D01*
D16*
X016436Y010150D03*
D17*
X010867Y004985D03*
X010867Y004315D03*
X010867Y003645D03*
X010867Y002975D03*
X010867Y002305D03*
D18*
X018832Y003206D02*
X020582Y002156D01*
X022082Y002156D01*
X023832Y003206D01*
X023832Y004706D02*
X022082Y005756D01*
X020582Y005756D01*
X018832Y004706D01*
X019832Y003256D02*
X019868Y003185D01*
X019907Y003115D01*
X019949Y003047D01*
X019994Y002981D01*
X020043Y002918D01*
X020095Y002857D01*
X020149Y002799D01*
X020206Y002743D01*
X020266Y002690D01*
X020328Y002640D01*
X020393Y002593D01*
X020460Y002549D01*
X020529Y002509D01*
X020600Y002472D01*
X020672Y002438D01*
X020746Y002408D01*
X020821Y002382D01*
X020898Y002359D01*
X020975Y002340D01*
X021054Y002325D01*
X021133Y002313D01*
X021212Y002305D01*
X021292Y002301D01*
X021372Y002301D01*
X021452Y002305D01*
X021531Y002313D01*
X021610Y002325D01*
X021689Y002340D01*
X021766Y002359D01*
X021843Y002382D01*
X021918Y002408D01*
X021992Y002438D01*
X022064Y002472D01*
X022135Y002509D01*
X022204Y002549D01*
X022271Y002593D01*
X022336Y002640D01*
X022398Y002690D01*
X022458Y002743D01*
X022515Y002799D01*
X022569Y002857D01*
X022621Y002918D01*
X022670Y002981D01*
X022715Y003047D01*
X022757Y003115D01*
X022796Y003185D01*
X022832Y003256D01*
X022832Y004656D02*
X022796Y004727D01*
X022757Y004797D01*
X022715Y004865D01*
X022670Y004931D01*
X022621Y004994D01*
X022569Y005055D01*
X022515Y005113D01*
X022458Y005169D01*
X022398Y005222D01*
X022336Y005272D01*
X022271Y005319D01*
X022204Y005363D01*
X022135Y005403D01*
X022064Y005440D01*
X021992Y005474D01*
X021918Y005504D01*
X021843Y005530D01*
X021766Y005553D01*
X021689Y005572D01*
X021610Y005587D01*
X021531Y005599D01*
X021452Y005607D01*
X021372Y005611D01*
X021292Y005611D01*
X021212Y005607D01*
X021133Y005599D01*
X021054Y005587D01*
X020975Y005572D01*
X020898Y005553D01*
X020821Y005530D01*
X020746Y005504D01*
X020672Y005474D01*
X020600Y005440D01*
X020529Y005403D01*
X020460Y005363D01*
X020393Y005319D01*
X020328Y005272D01*
X020266Y005222D01*
X020206Y005169D01*
X020149Y005113D01*
X020095Y005055D01*
X020043Y004994D01*
X019994Y004931D01*
X019949Y004865D01*
X019907Y004797D01*
X019868Y004727D01*
X019832Y004656D01*
D19*
X020491Y008345D03*
X020963Y008345D03*
X027554Y015495D03*
X028026Y015495D03*
D20*
X027790Y015495D03*
X020727Y008345D03*
D21*
X010184Y011963D02*
X010148Y011926D01*
X010074Y011926D01*
X010038Y011963D01*
X010038Y012036D01*
X010148Y012036D01*
X010184Y011999D01*
X010184Y011963D01*
X010038Y012036D02*
X010111Y012110D01*
X010184Y012146D01*
X009890Y012146D02*
X009817Y012073D01*
X009742Y012110D02*
X009742Y012036D01*
X009706Y011999D01*
X009596Y011999D01*
X009596Y011926D02*
X009596Y012146D01*
X009706Y012146D01*
X009742Y012110D01*
X009669Y011999D02*
X009742Y011926D01*
X009817Y011926D02*
X009963Y011926D01*
X009890Y011926D02*
X009890Y012146D01*
X009917Y011378D02*
X009844Y011378D01*
X009807Y011342D01*
X009917Y011378D02*
X009954Y011342D01*
X009954Y011305D01*
X009807Y011158D01*
X009954Y011158D01*
X009733Y011158D02*
X009586Y011158D01*
X009659Y011158D02*
X009659Y011378D01*
X009586Y011305D01*
X009512Y011342D02*
X009512Y011268D01*
X009475Y011232D01*
X009365Y011232D01*
X009438Y011232D02*
X009512Y011158D01*
X009365Y011158D02*
X009365Y011378D01*
X009475Y011378D01*
X009512Y011342D01*
X008885Y011322D02*
X008885Y011175D01*
X008848Y011139D01*
X008775Y011139D01*
X008738Y011175D01*
X008885Y011322D01*
X008848Y011359D01*
X008775Y011359D01*
X008738Y011322D01*
X008738Y011175D01*
X008664Y011139D02*
X008517Y011139D01*
X008591Y011139D02*
X008591Y011359D01*
X008517Y011285D01*
X008443Y011249D02*
X008406Y011212D01*
X008296Y011212D01*
X008296Y011139D02*
X008296Y011359D01*
X008406Y011359D01*
X008443Y011322D01*
X008443Y011249D01*
X008370Y011212D02*
X008443Y011139D01*
X007822Y011175D02*
X007822Y011322D01*
X007785Y011359D01*
X007712Y011359D01*
X007675Y011322D01*
X007675Y011285D01*
X007712Y011249D01*
X007822Y011249D01*
X007822Y011175D02*
X007785Y011139D01*
X007712Y011139D01*
X007675Y011175D01*
X007601Y011139D02*
X007528Y011212D01*
X007564Y011212D02*
X007454Y011212D01*
X007454Y011139D02*
X007454Y011359D01*
X007564Y011359D01*
X007601Y011322D01*
X007601Y011249D01*
X007564Y011212D01*
X006838Y011322D02*
X006691Y011175D01*
X006691Y011139D01*
X006617Y011139D02*
X006544Y011212D01*
X006580Y011212D02*
X006470Y011212D01*
X006470Y011139D02*
X006470Y011359D01*
X006580Y011359D01*
X006617Y011322D01*
X006617Y011249D01*
X006580Y011212D01*
X006691Y011359D02*
X006838Y011359D01*
X006838Y011322D01*
X007391Y012950D02*
X007391Y013170D01*
X007501Y013170D01*
X007538Y013133D01*
X007538Y013060D01*
X007501Y013023D01*
X007391Y013023D01*
X007464Y013023D02*
X007538Y012950D01*
X007612Y012950D02*
X007759Y012950D01*
X007685Y012950D02*
X007685Y013170D01*
X007612Y013096D01*
X007833Y013060D02*
X007906Y013096D01*
X007943Y013096D01*
X007980Y013060D01*
X007980Y012986D01*
X007943Y012950D01*
X007870Y012950D01*
X007833Y012986D01*
X007833Y013060D02*
X007833Y013170D01*
X007980Y013170D01*
X009596Y013895D02*
X009596Y014115D01*
X009706Y014115D01*
X009742Y014078D01*
X009742Y014005D01*
X009706Y013968D01*
X009596Y013968D01*
X009669Y013968D02*
X009742Y013895D01*
X009817Y013895D02*
X009963Y013895D01*
X009890Y013895D02*
X009890Y014115D01*
X009817Y014041D01*
X010038Y014005D02*
X010184Y014005D01*
X010148Y014115D02*
X010038Y014005D01*
X010148Y013895D02*
X010148Y014115D01*
X010148Y014839D02*
X010074Y014839D01*
X010038Y014876D01*
X009963Y014839D02*
X009817Y014839D01*
X009890Y014839D02*
X009890Y015060D01*
X009817Y014986D01*
X009742Y014950D02*
X009706Y014913D01*
X009596Y014913D01*
X009669Y014913D02*
X009742Y014839D01*
X009742Y014950D02*
X009742Y015023D01*
X009706Y015060D01*
X009596Y015060D01*
X009596Y014839D01*
X010038Y015023D02*
X010074Y015060D01*
X010148Y015060D01*
X010184Y015023D01*
X010184Y014986D01*
X010148Y014950D01*
X010184Y014913D01*
X010184Y014876D01*
X010148Y014839D01*
X010148Y014950D02*
X010111Y014950D01*
M02*
